<svg width="266" height="240" viewBox="0 0 266 240" fill="none" xmlns="http://www.w3.org/2000/svg">
<path d="M130.135 54.906C138.251 51.3065 147.337 50.5233 155.949 52.6809L204.022 64.7247C231.062 71.4991 242.945 103.251 226.997 126.114L205.317 157.193C196.826 169.365 182.268 175.803 167.55 173.895L71.8915 161.494C31.9764 156.319 24.0773 101.946 60.8699 85.6272L130.135 54.906Z" fill="#D9D9D9"/>
<path d="M64.6105 53.0927L56.9313 60.603C56.9313 60.603 57.2746 55.7119 58.7922 53.732C61.0788 50.7471 64.6105 53.0927 64.6105 53.0927Z" fill="#EBEDF0"/>
<path d="M201.457 83.9066C193.874 81.8508 181.463 81.8508 173.88 83.9066L35.6423 117.719C15.3626 121.539 76.2267 142.329 99.2737 137.445C103.595 136.529 108.892 135.354 119.263 132.655C139.879 127.29 195.414 112.612 208.115 108.378C225.488 102.588 233.82 100.093 236.253 98.4282C238.686 96.7633 239.604 94.2476 232.021 92.1918L201.457 83.9066Z" fill="#576485"/>
<path d="M207.346 90.106C209.976 80.2446 206.284 70.6826 199.099 68.7487C191.915 66.8147 183.959 73.2412 181.329 83.1026C178.699 92.9641 182.391 102.526 189.575 104.46C196.76 106.394 204.716 99.9675 207.346 90.106Z" fill="#001446"/>
<path d="M189.585 104.463L200.188 107.317L209.712 71.6078L199.109 68.7536L189.585 104.463Z" fill="#001446"/>
<path d="M108.524 116.697C111.154 106.836 107.461 97.2735 100.277 95.3396C93.0925 93.4056 85.1363 99.8321 82.5063 109.694C79.8763 119.555 83.5684 129.117 90.7529 131.051C97.9374 132.985 105.894 126.558 108.524 116.697Z" fill="#001446"/>
<path d="M90.7604 131.057L101.364 133.911L110.887 98.2019L100.284 95.3477L90.7604 131.057Z" fill="#001446"/>
<path d="M220.018 86.6016L199.358 80.5607L127.587 102.535L121.272 117.004L93.247 112.442L95.5633 92.3942L216.042 58.6806L221.512 73.1286L220.018 86.6016Z" fill="#001446"/>
<path d="M55.6376 103.403C58.2676 93.5411 54.5755 83.9791 47.391 82.0451C40.2065 80.1112 32.2503 86.5377 29.6203 96.3991C26.9903 106.261 30.6824 115.823 37.8669 117.756C45.0514 119.69 53.0076 113.264 55.6376 103.403Z" fill="#001230"/>
<path d="M37.87 117.761L48.4733 120.616L57.9968 84.9065L47.3935 82.0523L37.87 117.761Z" fill="#001230"/>
<path d="M65.9604 106.18C68.5904 96.3191 64.8983 86.7571 57.7138 84.8231C50.5293 82.8892 42.5731 89.3157 39.9431 99.1771C37.3131 109.039 41.0053 118.601 48.1897 120.534C55.3742 122.468 63.3304 116.042 65.9604 106.18Z" fill="#263762"/>
<path d="M225.763 50.4251C223.408 46.4791 224.252 36.3013 220.832 34.7813C204.769 27.6366 192.139 26.457 179.138 24.3345C168.174 22.5455 155.997 20.6 144.397 20.0803C131.554 19.5055 116.967 22.1407 109.017 24.0034C82.1343 30.3041 56.9313 60.665 56.9313 60.665C56.9313 60.665 33.0214 72.3329 26.1524 84.3618C22.3666 90.9937 24.2938 104.531 26.466 110.809C28.9174 117.889 49.0048 124.28 70.5937 126.715C77.6893 127.515 89.2437 125.584 89.2437 125.584C88.985 121.504 88.1679 114.541 90.9512 106.357C94.2747 96.5816 103.071 90.5453 110.057 91.61C118.102 92.8334 123.47 102.581 121.27 117.004L129.524 113.198C146.079 107.626 161.717 102.756 181.441 98.6558L188.397 98.4765C188.227 93.7302 187.325 88.7034 190.166 80.1974C193.949 68.8629 204.043 64.4409 210.821 66.2644C217.209 67.9845 221.109 78.022 220.015 86.6039C222.22 84.5665 224.094 82.9752 227.621 78.8245C228.896 77.3229 231.199 66.2023 229.384 58.6805C228.642 55.606 228.118 54.3712 225.763 50.4251Z" fill="#EBEDF0"/>
<mask id="mask0_1_170" style="mask-type:luminance" maskUnits="userSpaceOnUse" x="24" y="20" width="207" height="107">
<path d="M225.763 50.4251C223.408 46.4791 224.252 36.3013 220.832 34.7813C204.769 27.6366 192.139 26.457 179.138 24.3345C168.174 22.5455 155.997 20.6 144.397 20.0803C131.554 19.5055 116.967 22.1407 109.017 24.0034C82.1343 30.3041 56.9313 60.665 56.9313 60.665C56.9313 60.665 33.0214 72.3329 26.1524 84.3618C22.3666 90.9937 24.2938 104.531 26.466 110.809C28.9174 117.889 49.0048 124.28 70.5937 126.715C77.6893 127.515 89.2437 125.584 89.2437 125.584C88.985 121.504 88.1679 114.541 90.9512 106.357C94.2747 96.5816 103.071 90.5453 110.057 91.61C118.102 92.8334 123.47 102.581 121.27 117.004L129.524 113.198C146.079 107.626 161.717 102.756 181.441 98.6558L188.397 98.4765C188.227 93.7302 187.325 88.7034 190.166 80.1974C193.949 68.8629 204.043 64.4409 210.821 66.2644C217.209 67.9845 221.109 78.022 220.015 86.6039C222.22 84.5665 224.094 82.9752 227.621 78.8245C228.896 77.3229 231.199 66.2023 229.384 58.6805C228.642 55.606 228.118 54.3712 225.763 50.4251Z" fill="white"/>
</mask>
<g mask="url(#mask0_1_170)">
<path d="M142.71 41.7053C118.681 39.3207 100.466 35.6966 95.4512 29.0279C80.0354 37.5569 68.2957 47.8773 56.9313 60.6674C56.9313 67.0808 80.1751 74.6693 112.05 75.4098C123.568 57.1974 133.106 48.0452 142.71 41.7053Z" fill="#001446"/>
</g>
<mask id="mask1_1_170" style="mask-type:luminance" maskUnits="userSpaceOnUse" x="24" y="20" width="207" height="107">
<path d="M225.763 50.4251C223.408 46.4791 224.252 36.3013 220.832 34.7813C204.769 27.6366 192.139 26.457 179.138 24.3345C168.174 22.5455 155.997 20.6 144.397 20.0803C131.554 19.5055 116.967 22.1407 109.017 24.0034C82.1343 30.3041 56.9313 60.665 56.9313 60.665C56.9313 60.665 33.0214 72.3329 26.1524 84.3618C22.3666 90.9937 24.2938 104.531 26.466 110.809C28.9174 117.889 49.0048 124.28 70.5937 126.715C77.6893 127.515 89.2437 125.584 89.2437 125.584C88.985 121.504 88.1679 114.541 90.9512 106.357C94.2747 96.5816 103.071 90.5453 110.057 91.61C118.102 92.8334 123.47 102.581 121.27 117.004L129.524 113.198C146.079 107.626 161.717 102.756 181.441 98.6558L188.397 98.4765C188.227 93.7302 187.325 88.7034 190.166 80.1974C193.949 68.8629 204.043 64.4409 210.821 66.2644C217.209 67.9845 221.109 78.022 220.015 86.6039C222.22 84.5665 224.094 82.9752 227.621 78.8245C228.896 77.3229 231.199 66.2023 229.384 58.6805C228.642 55.606 228.118 54.3712 225.763 50.4251Z" fill="white"/>
</mask>
<g mask="url(#mask1_1_170)">
<path d="M60.1335 60.4282C66.4531 67.8558 84.4576 71.1694 111.764 72.9814C111.764 72.9814 116.85 65.9632 95.4535 61.0491C72.6446 55.8107 60.1335 60.4282 60.1335 60.4282Z" fill="#263762"/>
</g>
<mask id="mask2_1_170" style="mask-type:luminance" maskUnits="userSpaceOnUse" x="24" y="20" width="207" height="107">
<path d="M225.763 50.4251C223.408 46.4791 224.252 36.3013 220.832 34.7813C204.769 27.6366 192.139 26.457 179.138 24.3345C168.174 22.5455 155.997 20.6 144.397 20.0803C131.554 19.5055 116.967 22.1407 109.017 24.0034C82.1343 30.3041 56.9313 60.665 56.9313 60.665C56.9313 60.665 33.0214 72.3329 26.1524 84.3618C22.3666 90.9937 24.2938 104.531 26.466 110.809C28.9174 117.889 49.0048 124.28 70.5937 126.715C77.6893 127.515 89.2437 125.584 89.2437 125.584C88.985 121.504 88.1679 114.541 90.9512 106.357C94.2747 96.5816 103.071 90.5453 110.057 91.61C118.102 92.8334 123.47 102.581 121.27 117.004L129.524 113.198C146.079 107.626 161.717 102.756 181.441 98.6558L188.397 98.4765C188.227 93.7302 187.325 88.7034 190.166 80.1974C193.949 68.8629 204.043 64.4409 210.821 66.2644C217.209 67.9845 221.109 78.022 220.015 86.6039C222.22 84.5665 224.094 82.9752 227.621 78.8245C228.896 77.3229 231.199 66.2023 229.384 58.6805C228.642 55.606 228.118 54.3712 225.763 50.4251Z" fill="white"/>
</mask>
<g mask="url(#mask2_1_170)">
<path d="M96.9229 41.3834L108.077 44.3843L112.311 40.498L101.157 37.4971L96.9229 41.3834Z" fill="#263762"/>
</g>
<mask id="mask3_1_170" style="mask-type:luminance" maskUnits="userSpaceOnUse" x="24" y="20" width="207" height="107">
<path d="M225.763 50.4251C223.408 46.4791 224.252 36.3013 220.832 34.7813C204.769 27.6366 192.139 26.457 179.138 24.3345C168.174 22.5455 155.997 20.6 144.397 20.0803C131.554 19.5055 116.967 22.1407 109.017 24.0034C82.1343 30.3041 56.9313 60.665 56.9313 60.665C56.9313 60.665 33.0214 72.3329 26.1524 84.3618C22.3666 90.9937 24.2938 104.531 26.466 110.809C28.9174 117.889 49.0048 124.28 70.5937 126.715C77.6893 127.515 89.2437 125.584 89.2437 125.584C88.985 121.504 88.1679 114.541 90.9512 106.357C94.2747 96.5816 103.071 90.5453 110.057 91.61C118.102 92.8334 123.47 102.581 121.27 117.004L129.524 113.198C146.079 107.626 161.717 102.756 181.441 98.6558L188.397 98.4765C188.227 93.7302 187.325 88.7034 190.166 80.1974C193.949 68.8629 204.043 64.4409 210.821 66.2644C217.209 67.9845 221.109 78.022 220.015 86.6039C222.22 84.5665 224.094 82.9752 227.621 78.8245C228.896 77.3229 231.199 66.2023 229.384 58.6805C228.642 55.606 228.118 54.3712 225.763 50.4251Z" fill="white"/>
</mask>
<g mask="url(#mask3_1_170)">
<path d="M17.1227 116.052L19.9884 106.677C19.9884 106.677 49.0071 122.376 67.8814 119.329C80.6671 117.266 81.9238 92.7414 108.956 83.7364C139.453 73.5724 173.473 67.1061 203.986 51.4393C212.318 47.1621 225.763 37.8053 225.763 37.8053L241.52 38.2882L254.939 99.1365L77.6504 139.121L17.1227 116.052Z" fill="#C5C9D2"/>
</g>
<mask id="mask4_1_170" style="mask-type:luminance" maskUnits="userSpaceOnUse" x="24" y="20" width="207" height="107">
<path d="M225.763 50.4251C223.408 46.4791 224.252 36.3013 220.832 34.7813C204.769 27.6366 192.139 26.457 179.138 24.3345C168.174 22.5455 155.997 20.6 144.397 20.0803C131.554 19.5055 116.967 22.1407 109.017 24.0034C82.1343 30.3041 56.9313 60.665 56.9313 60.665C56.9313 60.665 33.0214 72.3329 26.1524 84.3618C22.3666 90.9937 24.2938 104.531 26.466 110.809C28.9174 117.889 49.0048 124.28 70.5937 126.715C77.6893 127.515 89.2437 125.584 89.2437 125.584C88.985 121.504 88.1679 114.541 90.9512 106.357C94.2747 96.5816 103.071 90.5453 110.057 91.61C118.102 92.8334 123.47 102.581 121.27 117.004L129.524 113.198C146.079 107.626 161.717 102.756 181.441 98.6558L188.397 98.4765C188.227 93.7302 187.325 88.7034 190.166 80.1974C193.949 68.8629 204.043 64.4409 210.821 66.2644C217.209 67.9845 221.109 78.022 220.015 86.6039C222.22 84.5665 224.094 82.9752 227.621 78.8245C228.896 77.3229 231.199 66.2023 229.384 58.6805C228.642 55.606 228.118 54.3712 225.763 50.4251Z" fill="white"/>
</mask>
<g mask="url(#mask4_1_170)">
<path opacity="0.2" d="M19.9313 99.1525C19.1301 74.8325 47.6361 68.5456 66.5081 68.1662C75.2837 58.7564 95.5222 30.5571 127.835 25.9672C149.524 22.8858 176.043 24.6703 190.212 26.073L180.09 16.3666L154.15 13.4462L100.672 21.0255L10.9519 84.4952L19.9313 99.1525Z" fill="white"/>
</g>
<path d="M118.839 119.468C121.467 109.611 117.776 100.054 110.594 98.1203C103.412 96.187 95.4589 102.61 92.8302 112.467C90.2015 122.323 93.8927 131.881 101.075 133.814C108.257 135.747 116.21 129.324 118.839 119.468Z" fill="#263762"/>
<path d="M115.542 118.58C117.505 111.221 114.75 104.086 109.388 102.643C104.027 101.199 98.0892 105.995 96.1266 113.354C94.164 120.713 96.9193 127.849 102.281 129.292C107.642 130.735 113.58 125.939 115.542 118.58Z" fill="#E5E7EC"/>
<path d="M111.673 115.369L114.129 119.264C114.801 120.331 113.856 122.199 112.689 122.107L108.431 121.769C107.923 121.727 107.379 122.093 107.054 122.695L104.314 127.734C103.563 129.116 102.032 128.911 101.984 127.423L101.807 121.996C101.787 121.35 101.45 120.867 100.956 120.773L96.8062 119.991C95.6686 119.777 95.6686 117.783 96.8062 116.958L100.956 113.943C101.45 113.584 101.787 112.92 101.807 112.262L101.984 106.741C102.032 105.228 103.563 104.2 104.314 105.177L107.054 108.739C107.381 109.165 107.923 109.236 108.431 108.923L112.689 106.293C113.856 105.571 114.801 106.93 114.129 108.36L111.673 113.578C111.38 114.196 111.38 114.904 111.673 115.369Z" fill="#263762"/>
<path d="M107.959 116.539C108.388 114.93 107.785 113.369 106.612 113.053C105.438 112.737 104.139 113.786 103.71 115.395C103.281 117.005 103.884 118.566 105.057 118.881C106.231 119.197 107.53 118.149 107.959 116.539Z" fill="#E5E7EC"/>
<path d="M217.67 92.8764C220.299 83.0198 216.608 73.4623 209.426 71.5291C202.244 69.5958 194.291 76.0188 191.662 85.8753C189.033 95.7318 192.724 105.289 199.906 107.223C207.088 109.156 215.042 102.733 217.67 92.8764Z" fill="#263762"/>
<path d="M214.374 91.9895C216.337 84.6306 213.582 77.495 208.22 76.0518C202.859 74.6085 196.921 79.4042 194.959 86.7631C192.996 94.1221 195.751 101.258 201.113 102.701C206.474 104.144 212.412 99.3485 214.374 91.9895Z" fill="#E5E7EC"/>
<path d="M210.505 88.7724L212.961 92.6678C213.634 93.7348 212.689 95.6021 211.521 95.5101L207.264 95.172C206.756 95.1306 206.211 95.4963 205.886 96.0988L203.146 101.137C202.395 102.519 200.864 102.314 200.816 100.827L200.64 95.3997C200.619 94.7535 200.283 94.2706 199.788 94.1763L195.639 93.3945C194.501 93.1806 194.501 91.1869 195.639 90.3614L199.788 87.3467C200.283 86.988 200.619 86.3234 200.64 85.6657L200.816 80.1445C200.864 78.6314 202.395 77.6035 203.146 78.5808L205.886 82.1428C206.213 82.5682 206.758 82.6395 207.264 82.3268L211.521 79.6961C212.689 78.974 213.634 80.3331 212.961 81.7634L210.505 86.981C210.212 87.5996 210.212 88.3079 210.505 88.7724Z" fill="#263762"/>
<path d="M206.79 89.9472C207.219 88.3377 206.616 86.777 205.443 86.4611C204.269 86.1453 202.97 87.1939 202.541 88.8033C202.112 90.4128 202.715 91.9735 203.888 92.2894C205.062 92.6052 206.361 91.5566 206.79 89.9472Z" fill="#E5E7EC"/>
<path d="M118.104 76.1203C170.806 63.2015 195.728 52.0211 200.736 49.5146C205.799 46.9805 209.729 37.2005 209.729 37.2005C209.729 37.2005 189.14 30.3226 163.896 37.0556C133.534 45.1523 118.104 76.1203 118.104 76.1203Z" fill="#001446"/>
<path d="M194.165 50.6597L197.628 49.2432L193.551 36.2807L189.928 35.9564L194.165 50.6597Z" fill="#263762"/>
<path d="M159.295 40.4889L161.472 62.2656L166.563 60.5892L163.83 39.0563L159.295 40.4889Z" fill="#263762"/>
<path d="M62.8527 122.024C64.3107 121.865 60.8544 116.675 60.3623 115.744C56.1691 107.831 47.2767 106.681 38.3477 104.255C30.3388 102.082 28.9106 105.145 27.8577 106.69C27.4525 107.286 25.9144 110.315 26.8689 111.057C29.0891 112.784 34.2048 115.019 41.6071 117.163C49.6159 119.485 61.1612 122.208 62.8527 122.024Z" fill="#C5C9D2"/>
<path d="M34.8801 107.486L49.0049 111.287V105.315L34.8801 101.514V107.486Z" fill="#001446"/>
<path d="M33.992 107.684L48.1168 111.487V105.513L33.992 101.712V107.684Z" fill="white"/>
<path d="M191.125 30.9549C180.246 26.9767 165.324 22.7823 149.016 20.3563C171.965 22.7225 185.291 23.8746 217.072 34.7814C206.323 32.2151 199.003 31.5022 191.125 30.9549Z" fill="#001446"/>
<path d="M44.6628 93.3761C44.2119 94.3281 43.2185 94.7995 42.4471 94.4293C41.6735 94.0591 41.4148 92.9875 41.8657 92.0378C42.3166 91.0857 43.31 90.6143 44.0814 90.9846C44.855 91.3548 45.1137 92.4264 44.6628 93.3761Z" fill="#667290"/>
<path opacity="0.2" d="M120.961 74.168C156.398 51.8624 167.172 48.6638 206.644 38.486C206.644 38.486 188.197 32.406 163.83 39.0563C138.293 46.0262 120.961 74.168 120.961 74.168Z" fill="white"/>
<path d="M161.33 37.8053C162.282 45.2489 164.093 62.9117 164.093 62.9117C164.093 62.9117 166.345 66.2024 166.082 70.5439C165.567 79.0201 165.205 92.4816 165.846 97.2762" stroke="#001446" stroke-width="0.325688" stroke-miterlimit="10"/>
<path d="M118.104 76.1203C121.339 79.5766 123.44 96.2276 125.525 108.116L179.042 93.728C181.422 93.0864 183.764 89.1473 185.039 86.3142L197.083 62.6358C198.426 59.651 198.278 54.3758 196.291 51.2875L191.425 34.7791" stroke="#001446" stroke-width="0.325688" stroke-miterlimit="10"/>
<path d="M225.763 50.4252C225.763 50.4252 217.482 57.6619 215.911 59.3888C215.193 60.1776 214.387 60.9364 213.973 62.461C213.561 63.9856 212.904 67.1061 212.904 67.1061" stroke="#001446" stroke-width="0.325688" stroke-miterlimit="10"/>
<path d="M84.7047 91.3801C84.7047 91.3801 91.0702 92.2884 93.8237 100.719" stroke="#001446" stroke-width="0.325688" stroke-miterlimit="10"/>
<path d="M142.218 41.8042C152.578 35.3241 169.758 29.0279 191.422 30.8905" stroke="#001446" stroke-width="0.325688" stroke-miterlimit="10"/>
<path d="M111.972 75.2488C111.972 75.2488 111.725 76.6975 109.546 77.8933C107.127 79.2201 89.9807 88.8989 84.7025 91.3801C78.0762 94.4937 57.1739 98.6237 51.3189 97.9292C41.0532 96.7104 37.1964 94.719 33.9897 93.1071C30.4876 91.3479 27.4022 83.8629 29.1097 82.0531" stroke="#001446" stroke-width="0.325688" stroke-miterlimit="10"/>
<path d="M155.175 72.1306L164.235 68.9182L163.871 71.0866L154.658 74.421L155.175 72.1306Z" fill="#667290"/>
<path d="M189.191 59.9085L196.627 56.5926L196.463 58.446L188.905 61.8746L189.191 59.9085Z" fill="#667290"/>
<path d="M33.9919 93.1071C35.1249 89.506 32.0304 86.6269 31.3162 82.2532C30.9294 79.8732 31.2704 77.9761 31.2704 77.9761C31.2704 77.9761 25.0469 83.2811 25.7061 86.6545C26.402 90.2142 33.9919 93.1071 33.9919 93.1071Z" fill="#667290"/>
<path d="M84.7048 91.3801C76.2244 91.3019 56.2972 90.8604 51.3212 97.9292C51.3212 97.9292 62.0996 99.7022 69.3142 98.2535C76.5265 96.8025 84.7048 91.3801 84.7048 91.3801Z" fill="#667290"/>
<path d="M221.489 35.2252C222.371 37.8858 222.009 47.1644 221.132 54.523L225.763 50.4252C225.763 50.4252 224.726 38.5204 221.489 35.2252Z" fill="#667290"/>
<path d="M123.168 76.3871C123.168 76.3871 122.458 76.5734 124.243 77.7875C126.189 79.1121 133.033 81.0391 134.916 80.655C140.261 79.5651 136.068 73.8852 134.784 73.4529C131.57 72.3721 132.598 71.6086 131.52 71.673C130.444 71.7374 123.168 76.3871 123.168 76.3871Z" fill="#BEC3CD"/>
<path d="M120.338 75.5109C120.338 75.5109 125.761 69.7575 128.301 69.7092C130.279 69.6701 134.894 69.8563 135.962 72.487C137.031 75.1177 133.804 76.5342 129.702 77.3782C125.601 78.2244 122.797 77.5805 121.803 77.0424C120.81 76.5043 120.338 75.5109 120.338 75.5109Z" fill="#EBEDF0"/>
<mask id="mask5_1_170" style="mask-type:luminance" maskUnits="userSpaceOnUse" x="120" y="69" width="17" height="9">
<path d="M120.338 75.5109C120.338 75.5109 125.761 69.7575 128.301 69.7092C130.279 69.6701 134.894 69.8563 135.962 72.487C137.031 75.1177 133.804 76.5342 129.702 77.3782C125.601 78.2244 122.797 77.5805 121.803 77.0424C120.81 76.5043 120.338 75.5109 120.338 75.5109Z" fill="white"/>
</mask>
<g mask="url(#mask5_1_170)">
<path d="M133.584 69.9276C133.584 69.9276 133.939 72.7814 129.348 73.8874C126.96 74.4623 119.402 75.6282 119.402 75.6282L121.243 78.9809L136.436 79.2707L138.405 72.7009L135.626 68.9296L133.584 69.9276Z" fill="#C5C9D2"/>
</g>
</svg>
