<svg width="266" height="240" viewBox="0 0 266 240" fill="none" xmlns="http://www.w3.org/2000/svg">
<path d="M133.135 67.906C141.251 64.3065 150.337 63.5233 158.949 65.6808L207.022 77.7247C234.062 84.4991 245.945 116.251 229.997 139.114L208.317 170.193C199.826 182.365 185.268 188.803 170.55 186.895L74.8915 174.494C34.9764 169.319 27.0773 114.946 63.8699 98.6271L133.135 67.906Z" fill="#D9D9D9"/>
<path d="M204.375 92.149C196.467 90.0538 183.53 90.0538 175.625 92.149L31.5077 126.601C10.3667 130.491 73.8185 151.676 97.8462 146.699C102.353 145.764 107.874 144.569 118.686 141.819C140.181 136.353 198.079 121.399 211.317 117.087C229.427 111.189 238.114 108.646 240.651 106.95C243.185 105.255 244.144 102.692 236.239 100.597L204.375 92.149Z" fill="#576485"/>
<path d="M55.4266 112.51C58.0613 102.855 54.3624 93.4935 47.1647 91.6C39.9671 89.7065 31.9963 95.9982 29.3616 105.653C26.7269 115.308 30.4258 124.669 37.6235 126.563C44.8211 128.456 52.7919 122.164 55.4266 112.51Z" fill="#001446"/>
<path d="M37.6263 126.567L48.249 129.361L57.7897 94.401L47.167 91.6065L37.6263 126.567Z" fill="#001446"/>
<path d="M65.7698 115.229C68.4045 105.574 64.7055 96.2127 57.5079 94.3192C50.3102 92.4258 42.3395 98.7175 39.7048 108.372C37.07 118.027 40.769 127.388 47.9666 129.282C55.1643 131.175 63.135 124.884 65.7698 115.229Z" fill="#263762"/>
<path d="M205.001 99.8541C207.636 90.1994 203.937 80.8378 196.739 78.9444C189.541 77.0509 181.571 83.3426 178.936 92.9973C176.301 102.652 180 112.014 187.198 113.907C194.395 115.8 202.366 109.509 205.001 99.8541Z" fill="#001446"/>
<path d="M187.207 113.912L197.83 116.707L207.371 81.7461L196.748 78.9516L187.207 113.912Z" fill="#001446"/>
<path d="M105.813 125.992C108.447 116.337 104.748 106.976 97.5508 105.082C90.3532 103.189 82.3824 109.48 79.7477 119.135C77.113 128.79 80.8119 138.151 88.0096 140.045C95.2072 141.938 103.178 135.646 105.813 125.992Z" fill="#001446"/>
<path d="M88.0155 140.051L98.6383 142.846L108.179 107.885L97.5562 105.091L88.0155 140.051Z" fill="#001446"/>
<path d="M218.852 93.9377L198.205 90.2319L126.303 111.745L119.977 123.395L91.9023 121.445L94.2223 101.819L214.916 68.8102L220.397 82.9552L218.852 93.9377Z" fill="#001446"/>
<path d="M69.2095 63.3136L61.021 69.5906C61.021 69.5906 61.8666 65.0198 63.5357 63.3136C66.0527 60.738 69.2095 63.3136 69.2095 63.3136Z" fill="#EBEDF0"/>
<path d="M230.919 63.3505C230.919 63.3505 229.609 49.9424 226.363 49.4534C223.937 44.6913 218.742 36.9929 215.777 36.0801C203.296 32.2287 171.311 23.3588 164.968 24.678C136.577 30.5834 115.219 35.7171 98.2114 40.6378C84.1145 44.7174 62.3337 68.7081 62.3337 68.7081C62.3337 68.7081 35.7891 78.4235 26.0465 87.0587C23.1974 89.5843 23.4409 104.505 26.0465 115.336C27.4301 121.089 74.6796 132.152 84.0414 131.389L88.0505 130.506C87.7915 126.514 88.2718 120.058 89.6023 115.488C92.4314 105.764 101.758 99.9235 108.742 101.049C115.394 102.121 122.179 109.276 119.974 123.397L126.432 120.576C143.017 115.12 160.995 110.3 180.752 106.285L187.223 105.259C187.223 100.854 187.479 94.6528 188.996 89.8777C192.542 78.7039 202.898 74.4504 209.687 76.237C216.087 77.9215 219.946 85.5395 218.85 93.9399C221.059 91.9468 227.882 90.2342 231.415 86.1698C232.692 84.7005 234.519 75.898 234.519 67.667C234.521 65.3067 230.919 63.3505 230.919 63.3505Z" fill="#EBEDF0"/>
<mask id="mask0_1_420" style="mask-type:luminance" maskUnits="userSpaceOnUse" x="24" y="24" width="211" height="108">
<path d="M230.919 63.3505C230.919 63.3505 229.609 49.9424 226.363 49.4534C223.937 44.6913 218.742 36.9929 215.777 36.0801C203.296 32.2287 171.311 23.3588 164.968 24.678C136.577 30.5834 115.219 35.7171 98.2114 40.6378C84.1145 44.7174 62.3337 68.7081 62.3337 68.7081C62.3337 68.7081 35.7891 78.4235 26.0465 87.0587C23.1974 89.5843 23.4409 104.505 26.0465 115.336C27.4301 121.089 74.6796 132.152 84.0414 131.389L88.0505 130.506C87.7915 126.514 88.2718 120.058 89.6023 115.488C92.4314 105.764 101.758 99.9235 108.742 101.049C115.394 102.121 122.179 109.276 119.974 123.397L126.432 120.576C143.017 115.12 160.995 110.3 180.752 106.285L187.223 105.259C187.223 100.854 187.479 94.6528 188.996 89.8777C192.542 78.7039 202.898 74.4504 209.687 76.237C216.087 77.9215 219.946 85.5395 218.85 93.9399C221.059 91.9468 227.882 90.2342 231.415 86.1698C232.692 84.7005 234.519 75.898 234.519 67.667C234.521 65.3067 230.919 63.3505 230.919 63.3505Z" fill="white"/>
</mask>
<g mask="url(#mask0_1_420)">
<path d="M138.348 54.9283C113.508 51.7008 97.8838 46.6692 92.79 42.8547C83.82 47.5168 74.4361 55.5695 62.3359 68.7103C62.3359 74.9894 78.682 81.8402 110.615 82.564C121.141 70.3882 132.128 57.48 138.348 54.9283Z" fill="#001446"/>
</g>
<mask id="mask1_1_420" style="mask-type:luminance" maskUnits="userSpaceOnUse" x="24" y="24" width="211" height="108">
<path d="M230.919 63.3505C230.919 63.3505 229.609 49.9424 226.363 49.4534C223.937 44.6913 218.742 36.9929 215.777 36.0801C203.296 32.2287 171.311 23.3588 164.968 24.678C136.577 30.5834 115.219 35.7171 98.2114 40.6378C84.1145 44.7174 62.3337 68.7081 62.3337 68.7081C62.3337 68.7081 35.7891 78.4235 26.0465 87.0587C23.1974 89.5843 23.4409 104.505 26.0465 115.336C27.4301 121.089 74.6796 132.152 84.0414 131.389L88.0505 130.506C87.7915 126.514 88.2718 120.058 89.6023 115.488C92.4314 105.764 101.758 99.9235 108.742 101.049C115.394 102.121 122.179 109.276 119.974 123.397L126.432 120.576C143.017 115.12 160.995 110.3 180.752 106.285L187.223 105.259C187.223 100.854 187.479 94.6528 188.996 89.8777C192.542 78.7039 202.898 74.4504 209.687 76.237C216.087 77.9215 219.946 85.5395 218.85 93.9399C221.059 91.9468 227.882 90.2342 231.415 86.1698C232.692 84.7005 234.519 75.898 234.519 67.667C234.521 65.3067 230.919 63.3505 230.919 63.3505Z" fill="white"/>
</mask>
<g mask="url(#mask1_1_420)">
<path d="M64.2065 68.7103C70.1349 75.5197 87.0255 78.5583 112.643 80.2188C112.643 80.2188 117.413 73.7853 97.3414 69.2797C75.9414 64.4764 64.2065 68.7103 64.2065 68.7103Z" fill="#263762"/>
</g>
<mask id="mask2_1_420" style="mask-type:luminance" maskUnits="userSpaceOnUse" x="24" y="24" width="211" height="108">
<path d="M230.919 63.3505C230.919 63.3505 229.609 49.9424 226.363 49.4534C223.937 44.6913 218.742 36.9929 215.777 36.0801C203.296 32.2287 171.311 23.3588 164.968 24.678C136.577 30.5834 115.219 35.7171 98.2114 40.6378C84.1145 44.7174 62.3337 68.7081 62.3337 68.7081C62.3337 68.7081 35.7891 78.4235 26.0465 87.0587C23.1974 89.5843 23.4409 104.505 26.0465 115.336C27.4301 121.089 74.6796 132.152 84.0414 131.389L88.0505 130.506C87.7915 126.514 88.2718 120.058 89.6023 115.488C92.4314 105.764 101.758 99.9235 108.742 101.049C115.394 102.121 122.179 109.276 119.974 123.397L126.432 120.576C143.017 115.12 160.995 110.3 180.752 106.285L187.223 105.259C187.223 100.854 187.479 94.6528 188.996 89.8777C192.542 78.7039 202.898 74.4504 209.687 76.237C216.087 77.9215 219.946 85.5395 218.85 93.9399C221.059 91.9468 227.882 90.2342 231.415 86.1698C232.692 84.7005 234.519 75.898 234.519 67.667C234.521 65.3067 230.919 63.3505 230.919 63.3505Z" fill="white"/>
</mask>
<g mask="url(#mask2_1_420)">
<path d="M94.7292 53.7851L105.904 56.7258L110.146 52.92L98.9729 49.9815L94.7292 53.7851Z" fill="#263762"/>
</g>
<mask id="mask3_1_420" style="mask-type:luminance" maskUnits="userSpaceOnUse" x="24" y="24" width="211" height="108">
<path d="M230.919 63.3505C230.919 63.3505 229.609 49.9424 226.363 49.4534C223.937 44.6913 218.742 36.9929 215.777 36.0801C203.296 32.2287 171.311 23.3588 164.968 24.678C136.577 30.5834 115.219 35.7171 98.2114 40.6378C84.1145 44.7174 62.3337 68.7081 62.3337 68.7081C62.3337 68.7081 35.7891 78.4235 26.0465 87.0587C23.1974 89.5843 23.4409 104.505 26.0465 115.336C27.4301 121.089 74.6796 132.152 84.0414 131.389L88.0505 130.506C87.7915 126.514 88.2718 120.058 89.6023 115.488C92.4314 105.764 101.758 99.9235 108.742 101.049C115.394 102.121 122.179 109.276 119.974 123.397L126.432 120.576C143.017 115.12 160.995 110.3 180.752 106.285L187.223 105.259C187.223 100.854 187.479 94.6528 188.996 89.8777C192.542 78.7039 202.898 74.4504 209.687 76.237C216.087 77.9215 219.946 85.5395 218.85 93.9399C221.059 91.9468 227.882 90.2342 231.415 86.1698C232.692 84.7005 234.519 75.898 234.519 67.667C234.521 65.3067 230.919 63.3505 230.919 63.3505Z" fill="white"/>
</mask>
<g mask="url(#mask3_1_420)">
<path d="M142.295 49.1578L108.399 40.2423L150.265 30.3095L184.163 39.2273L142.295 49.1578Z" fill="#263762"/>
</g>
<mask id="mask4_1_420" style="mask-type:luminance" maskUnits="userSpaceOnUse" x="24" y="24" width="211" height="108">
<path d="M230.919 63.3505C230.919 63.3505 229.609 49.9424 226.363 49.4534C223.937 44.6913 218.742 36.9929 215.777 36.0801C203.296 32.2287 171.311 23.3588 164.968 24.678C136.577 30.5834 115.219 35.7171 98.2114 40.6378C84.1145 44.7174 62.3337 68.7081 62.3337 68.7081C62.3337 68.7081 35.7891 78.4235 26.0465 87.0587C23.1974 89.5843 23.4409 104.505 26.0465 115.336C27.4301 121.089 74.6796 132.152 84.0414 131.389L88.0505 130.506C87.7915 126.514 88.2718 120.058 89.6023 115.488C92.4314 105.764 101.758 99.9235 108.742 101.049C115.394 102.121 122.179 109.276 119.974 123.397L126.432 120.576C143.017 115.12 160.995 110.3 180.752 106.285L187.223 105.259C187.223 100.854 187.479 94.6528 188.996 89.8777C192.542 78.7039 202.898 74.4504 209.687 76.237C216.087 77.9215 219.946 85.5395 218.85 93.9399C221.059 91.9468 227.882 90.2342 231.415 86.1698C232.692 84.7005 234.519 75.898 234.519 67.667C234.521 65.3067 230.919 63.3505 230.919 63.3505Z" fill="white"/>
</mask>
<g mask="url(#mask4_1_420)">
<path opacity="0.2" d="M27.9281 117.985C28.1384 108.098 28.7229 99.6518 28.9708 96.6176C29.3449 92.0316 29.3361 91.4317 35.4061 89.8886C43.6345 87.7955 61.9109 81.5164 76.672 78.3735C84.1654 68.8125 100.104 47.4864 108.399 45.0869C119.293 41.9354 165.037 31.0702 179.335 27.6731L167.237 24.1129L93.8703 36.38L12.8638 90.7601L15.5025 115.827L27.9281 117.985Z" fill="white"/>
</g>
<mask id="mask5_1_420" style="mask-type:luminance" maskUnits="userSpaceOnUse" x="24" y="24" width="211" height="108">
<path d="M230.919 63.3505C230.919 63.3505 229.609 49.9424 226.363 49.4534C223.937 44.6913 218.742 36.9929 215.777 36.0801C203.296 32.2287 171.311 23.3588 164.968 24.678C136.577 30.5834 115.219 35.7171 98.2114 40.6378C84.1145 44.7174 62.3337 68.7081 62.3337 68.7081C62.3337 68.7081 35.7891 78.4235 26.0465 87.0587C23.1974 89.5843 23.4409 104.505 26.0465 115.336C27.4301 121.089 74.6796 132.152 84.0414 131.389L88.0505 130.506C87.7915 126.514 88.2718 120.058 89.6023 115.488C92.4314 105.764 101.758 99.9235 108.742 101.049C115.394 102.121 122.179 109.276 119.974 123.397L126.432 120.576C143.017 115.12 160.995 110.3 180.752 106.285L187.223 105.259C187.223 100.854 187.479 94.6528 188.996 89.8777C192.542 78.7039 202.898 74.4504 209.687 76.237C216.087 77.9215 219.946 85.5395 218.85 93.9399C221.059 91.9468 227.882 90.2342 231.415 86.1698C232.692 84.7005 234.519 75.898 234.519 67.667C234.521 65.3067 230.919 63.3505 230.919 63.3505Z" fill="white"/>
</mask>
<g mask="url(#mask5_1_420)">
<path d="M20.935 105.818C21.7674 112.29 45.6844 118.357 50.5235 118.476C60.0625 118.711 61.404 110.315 61.404 110.315L81.0684 98.3824L106.688 86.9717L116.802 85.8828L203.456 41.468L230.388 34.3586L244.841 99.6452L79.3594 163.534L17.6056 128.059L20.935 105.818Z" fill="#C5C9D2"/>
</g>
<path d="M137.671 55.1391C137.671 55.1391 139.986 53.9829 141.773 53.3526C147.648 51.2769 209.53 36.2343 215.78 36.08" stroke="#001446" stroke-width="0.31499" stroke-miterlimit="10"/>
<path d="M116.804 85.885C144.914 79.6558 184.611 67.3496 210.126 56.9757C215.472 54.8022 214.29 46.8408 214.144 43.8675C214.006 41.0877 213.404 38.849 210.126 39.4489C198.329 41.6093 144.483 54.3893 140.002 57.882C127.769 67.4214 116.804 85.885 116.804 85.885Z" fill="#001446"/>
<path d="M193.1 61.151L196.567 59.7643L191.984 44.5826L188.682 45.3542L193.1 61.151Z" fill="#263762"/>
<path d="M158.287 52.9635L160.251 72.3204L165.349 70.6794L162.932 51.679L158.287 52.9635Z" fill="#263762"/>
<path opacity="0.2" d="M119.293 84.6983C155.553 62.1247 194.869 50.4423 212.705 45.3303C212.705 41.9462 212.379 40.3161 209.189 40.9008C197.705 43.0047 145.339 55.2239 140.978 58.6254C129.071 67.9105 119.293 84.6983 119.293 84.6983Z" fill="white"/>
<path d="M122.549 86.0459C122.549 86.0459 121.641 86.0893 123.412 87.589C125.345 89.2235 132.555 88.9909 134.446 88.854C136.409 88.7105 138.685 87.4543 137.669 85.885C135.814 83.0204 131.565 80.6513 130.521 80.6948C129.478 80.7361 122.549 86.0459 122.549 86.0459Z" fill="#BEC3CD"/>
<path d="M119.773 84.9179C119.773 84.9179 124.867 78.2388 127.333 78.2584C129.254 78.2736 133.746 78.6344 134.866 81.7968C135.986 84.9592 132.894 86.5458 128.933 87.426C124.973 88.3063 122.228 87.4565 121.245 86.7849C120.262 86.1133 119.773 84.9179 119.773 84.9179Z" fill="#EBEDF0"/>
<mask id="mask6_1_420" style="mask-type:luminance" maskUnits="userSpaceOnUse" x="119" y="78" width="17" height="10">
<path d="M119.773 84.9179C119.773 84.9179 124.867 78.2388 127.333 78.2584C129.254 78.2736 133.746 78.6344 134.866 81.7968C135.986 84.9592 132.894 86.5458 128.933 87.426C124.973 88.3063 122.228 87.4565 121.245 86.7849C120.262 86.1133 119.773 84.9179 119.773 84.9179Z" fill="white"/>
</mask>
<g mask="url(#mask6_1_420)">
<path d="M132.473 78.68C132.473 78.68 132.905 82.0858 128.477 83.2617C126.175 83.8724 118.865 85.0287 118.865 85.0287L120.756 89.0735L135.532 89.882L137.241 82.1249L134.426 77.5541L132.473 78.68Z" fill="#C5C9D2"/>
</g>
<path d="M153.665 80.4122L161.457 78.0736L161.07 79.8558L153.143 82.2901L153.665 80.4122Z" fill="#667290"/>
<path d="M186.16 69.8014L193.809 67.0433L193.523 68.8429L185.742 71.7032L186.16 69.8014Z" fill="#667290"/>
<path d="M68.3063 129.589C69.9865 129.411 66.252 123.388 65.4329 122.512C63.4937 120.434 52.0643 117.546 41.7661 114.814C32.5327 112.364 29.2453 111.828 28.3023 112.658C27.6869 113.201 25.71 116.394 26.8124 117.231C29.3737 119.176 35.271 121.695 43.8071 124.112C53.045 126.727 66.356 129.796 68.3063 129.589Z" fill="#001446"/>
<path d="M30.6156 93.9508V102.277C30.6156 102.277 26.1727 96.1547 26.1771 92.0838C26.1815 88.0129 27.4721 86.3545 27.4721 86.3545C27.3437 89.0062 28.0388 91.573 30.6156 93.9508Z" fill="#667290"/>
<path d="M30.6156 102.277C39.4572 106.213 49.9391 108.698 61.404 110.315L62.3758 102.553L30.6156 93.9508V102.277Z" fill="#C5C9D2"/>
<path d="M117.357 128.725C119.992 119.07 116.293 109.709 109.095 107.815C101.897 105.922 93.9266 112.214 91.2918 121.868C88.6571 131.523 92.356 140.884 99.5537 142.778C106.751 144.671 114.722 138.38 117.357 128.725Z" fill="#263762"/>
<path d="M114.053 127.856C116.02 120.649 113.259 113.661 107.886 112.247C102.512 110.834 96.5622 115.53 94.5954 122.737C92.6286 129.945 95.39 136.933 100.763 138.346C106.136 139.76 112.087 135.063 114.053 127.856Z" fill="#E5E7EC"/>
<path d="M112.257 127.384C113.861 121.507 111.61 115.808 107.229 114.655C102.847 113.503 97.9955 117.333 96.3916 123.21C94.7877 129.087 97.0392 134.786 101.42 135.939C105.802 137.091 110.653 133.261 112.257 127.384Z" fill="#001446"/>
<path d="M113.247 119.074L111.766 116.359L105.977 121.925V113.838L103.017 114.618V122.706L97.2285 120.185L95.7476 123.677L101.536 126.198L95.7476 131.765L97.2285 134.477L103.017 128.913V136.998L105.977 136.22V128.133L111.766 130.654L113.247 127.161L107.458 124.64L113.247 119.074Z" fill="#E5E7EC"/>
<path d="M103.084 124.97C102.831 125.892 103.186 126.787 103.874 126.968C104.563 127.148 105.324 126.548 105.574 125.625C105.827 124.703 105.472 123.808 104.784 123.627C104.098 123.447 103.336 124.049 103.084 124.97Z" fill="#263762"/>
<path d="M216.544 102.589C219.179 92.9345 215.48 83.5729 208.282 81.6794C201.085 79.786 193.114 86.0777 190.479 95.7323C187.844 105.387 191.543 114.749 198.741 116.642C205.939 118.535 213.909 112.244 216.544 102.589Z" fill="#263762"/>
<path d="M213.241 101.72C215.208 94.5134 212.446 87.5251 207.073 86.1116C201.7 84.6981 195.75 89.3947 193.783 96.6018C191.816 103.809 194.578 110.797 199.951 112.211C205.324 113.624 211.274 108.928 213.241 101.72Z" fill="#E5E7EC"/>
<path d="M211.445 101.248C213.048 95.3705 210.797 89.6717 206.416 88.5192C202.035 87.3667 197.183 91.1968 195.579 97.074C193.975 102.951 196.226 108.65 200.608 109.802C204.989 110.955 209.841 107.125 211.445 101.248Z" fill="#001446"/>
<path d="M212.435 92.9336L210.954 90.219L205.167 95.7852V87.6977L202.205 88.478V96.5655L196.419 94.0443L194.938 97.537L200.724 100.058L194.938 105.624L196.419 108.339L202.205 102.773V110.858L205.167 110.08V101.993L210.954 104.514L212.435 101.021L206.648 98.4999L212.435 92.9336Z" fill="#E5E7EC"/>
<path d="M202.274 98.8303C202.021 99.7518 202.376 100.647 203.064 100.828C203.753 101.008 204.514 100.408 204.764 99.4845C205.017 98.5629 204.662 97.6674 203.974 97.4871C203.285 97.3067 202.524 97.9087 202.274 98.8303Z" fill="#263762"/>
<path d="M160.452 51.4443C161.406 58.7319 162.874 72.9529 162.874 72.9529C162.874 72.9529 165.3 76.9825 164.844 81.2164C164.107 88.0781 163.162 100.38 163.804 105.075" stroke="#001446" stroke-width="0.31499" stroke-miterlimit="10"/>
<path d="M116.804 85.885C120.045 89.2691 119.399 104.625 121.486 116.264L177.976 101.33C180.362 100.702 182.583 98.6411 183.86 95.8678L195.925 72.6856C197.271 69.7644 197.122 64.5981 195.132 61.5748L190.103 43.9306" stroke="#001446" stroke-width="0.31499" stroke-miterlimit="10"/>
<path d="M230.919 63.3506C230.919 63.3506 215.762 69.0842 214.786 69.5036C213.809 69.9231 213.258 71.0186 212.844 72.5117C212.43 74.0049 211.773 77.0608 211.773 77.0608" stroke="#001446" stroke-width="0.31499" stroke-miterlimit="10"/>
<path d="M76.3266 106.279C76.3266 106.279 86.5186 103.071 89.2149 103.125C91.039 103.162 92.2632 107.013 92.4779 109.435" stroke="#001446" stroke-width="0.31499" stroke-miterlimit="10"/>
<path d="M110.615 82.5639C110.615 82.5639 107.985 85.5329 106.688 86.9717C104.919 88.9322 84.5196 96.6893 81.0684 98.3824" stroke="#001446" stroke-width="0.31499" stroke-miterlimit="10"/>
<path d="M226.363 49.4534C227.218 54.8284 227.506 58.8493 227.063 64.8111L230.917 63.3506C230.919 63.3506 230.025 50.2728 226.363 49.4534Z" fill="#667290"/>
<path d="M62.3758 102.553L81.0706 98.3825C81.0706 98.3825 80.4751 105.162 77.9958 105.914C72.4438 107.598 61.4062 110.315 61.4062 110.315L62.3758 102.553Z" fill="#667290"/>
<path d="M46.592 102.193C47.0215 103.768 46.4171 105.298 45.2438 105.607C44.0684 105.916 42.7667 104.89 42.3372 103.312C41.9078 101.736 42.5121 100.206 43.6854 99.8974C44.8609 99.5866 46.1625 100.615 46.592 102.193Z" fill="#263762"/>
<path d="M35.7581 116.979L52.859 121.478V114.412L35.7581 109.913V116.979Z" fill="#001446"/>
<path d="M34.6822 117.213L51.7831 121.712V114.646L34.6822 110.147V117.213Z" fill="#F7F6F6"/>
</svg>
