<svg width="266" height="240" viewBox="0 0 266 240" fill="none" xmlns="http://www.w3.org/2000/svg">
<path d="M135.606 65.906C143.721 62.3065 152.807 61.5233 161.419 63.6808L209.492 75.7247C236.533 82.4991 248.416 114.251 232.467 137.114L210.787 168.193C202.296 180.365 187.739 186.803 173.02 184.895L77.3617 172.494C37.4466 167.319 29.5475 112.946 66.3402 96.6271L135.606 65.906Z" fill="#D9D9D9"/>
<path d="M69.1745 66.7367L62.2994 72.1506C62.2994 72.1506 63.0086 68.2089 64.412 66.7367C66.5246 64.5143 69.1745 66.7367 69.1745 66.7367Z" fill="#EBEDF0"/>
<path d="M211.054 93.2514C203.296 91.1396 190.599 91.1396 182.84 93.2514L41.4096 127.99C20.6618 131.912 82.931 153.275 106.511 148.256C110.934 147.315 116.352 146.107 126.963 143.336C148.056 137.825 204.873 122.745 217.867 118.396C235.64 112.446 244.166 109.883 246.653 108.173C249.141 106.462 250.08 103.878 242.322 101.766L211.054 93.2514Z" fill="#576485"/>
<path d="M231.486 98.7065L213.466 92.963L135.389 116.967L123.606 131.984L98.0331 127.79L100.554 105.892L219.565 72.7903L237.564 84.8454L231.486 98.7065Z" fill="#001446"/>
<path d="M194.772 93.0865C192.232 102.648 195.797 111.919 202.735 113.793C209.672 115.668 217.353 109.437 219.894 99.8772C222.432 90.3156 218.869 81.0467 211.931 79.1712C204.994 77.2957 197.31 83.5271 194.772 93.0865Z" fill="#001446"/>
<path d="M202.735 113.801L212.973 116.569L222.168 81.9467L211.93 79.1793L202.735 113.801Z" fill="#001446"/>
<path d="M87.0639 122.253C84.5236 131.814 88.089 141.083 95.0265 142.959C101.964 144.834 109.645 138.603 112.185 129.043C114.723 119.482 111.16 110.213 104.223 108.337C97.2852 106.462 89.6042 112.693 87.0639 122.253Z" fill="#001446"/>
<path d="M95.0259 142.966L105.264 145.734L114.459 111.112L104.221 108.344L95.0259 142.966Z" fill="#001446"/>
<path d="M223.601 44.0251C199.876 36.3064 152.469 25.6151 122.125 34.4721C91.1793 43.5069 60.5906 73.6878 60.5906 73.6878C60.5906 73.6878 42.4798 83.1215 33.5179 90.3827C23.9156 98.1665 24.023 113.283 26.2151 121.515C27.9108 127.886 70.8936 137.842 80.7281 137.764C83.5478 138.356 87.8955 138.336 92.1099 138.282L94.0613 137.764C93.7798 133.308 93.9668 129.054 94.9146 124.252C97.1002 113.185 106.284 105.77 113.868 107.026C121.091 108.222 126.002 116.225 123.606 131.981L134.521 126.817C152.531 120.731 172.051 115.349 193.506 110.872L201.495 109.916C201.495 105.001 201.834 100.671 203.167 95.2524C205.855 84.3227 214.92 77.61 222.292 79.6026C229.242 81.4802 232.674 89.3312 231.486 98.7063C234.602 97.091 236.349 95.1961 237.319 92.3362C239.06 87.1977 239.444 80.704 239.186 78.074C239.06 76.7861 238.802 75.4419 238.436 74.0716C236.214 65.7371 223.375 45.1634 223.601 44.0251Z" fill="#EBEDF0"/>
<mask id="mask0_1_85" style="mask-type:luminance" maskUnits="userSpaceOnUse" x="25" y="31" width="215" height="108">
<path d="M223.601 44.0251C199.876 36.3064 152.469 25.6151 122.125 34.4721C91.1793 43.5069 60.5906 73.6878 60.5906 73.6878C60.5906 73.6878 42.4798 83.1215 33.5179 90.3827C23.9156 98.1665 24.023 113.283 26.2151 121.515C27.9108 127.886 70.8936 137.842 80.7281 137.764C83.5478 138.356 87.8955 138.336 92.1099 138.282L94.0613 137.764C93.7798 133.308 93.9668 129.054 94.9146 124.252C97.1002 113.185 106.284 105.77 113.868 107.026C121.091 108.222 126.002 116.225 123.606 131.981L134.521 126.817C152.531 120.731 172.051 115.349 193.506 110.872L201.495 109.916C201.495 105.001 201.834 100.671 203.167 95.2524C205.855 84.3227 214.92 77.61 222.292 79.6026C229.242 81.4802 232.674 89.3312 231.486 98.7063C234.602 97.091 236.349 95.1961 237.319 92.3362C239.06 87.1977 239.444 80.704 239.186 78.074C239.06 76.7861 238.802 75.4419 238.436 74.0716C236.214 65.7371 223.375 45.1634 223.601 44.0251Z" fill="white"/>
</mask>
<g mask="url(#mask0_1_85)">
<path d="M167.85 48.175C185.022 42.4532 197.697 41.3951 221.211 43.6283L223.599 44.0273C199.834 36.3021 152.424 25.6282 122.123 34.4743C114.339 36.7466 106.576 40.3587 99.3161 44.4913C98.9228 44.7471 98.5295 45.003 98.1362 45.2653C91.5147 49.1572 85.5337 53.164 80.034 57.2575C75.3897 60.7439 71.3644 64.0568 68.1987 66.7822C65.6412 69.0003 63.1826 71.2335 60.7992 73.484C60.6617 73.6185 60.5886 73.69 60.5864 73.69C65.5381 81.9659 83.7907 88.5246 118.465 89.3334C118.471 89.3334 137.261 58.3697 167.85 48.175Z" fill="#001446"/>
</g>
<mask id="mask1_1_85" style="mask-type:luminance" maskUnits="userSpaceOnUse" x="25" y="31" width="215" height="108">
<path d="M223.601 44.0251C199.876 36.3064 152.469 25.6151 122.125 34.4721C91.1793 43.5069 60.5906 73.6878 60.5906 73.6878C60.5906 73.6878 42.4798 83.1215 33.5179 90.3827C23.9156 98.1665 24.023 113.283 26.2151 121.515C27.9108 127.886 70.8936 137.842 80.7281 137.764C83.5478 138.356 87.8955 138.336 92.1099 138.282L94.0613 137.764C93.7798 133.308 93.9668 129.054 94.9146 124.252C97.1002 113.185 106.284 105.77 113.868 107.026C121.091 108.222 126.002 116.225 123.606 131.981L134.521 126.817C152.531 120.731 172.051 115.349 193.506 110.872L201.495 109.916C201.495 105.001 201.834 100.671 203.167 95.2524C205.855 84.3227 214.92 77.61 222.292 79.6026C229.242 81.4802 232.674 89.3312 231.486 98.7063C234.602 97.091 236.349 95.1961 237.319 92.3362C239.06 87.1977 239.444 80.704 239.186 78.074C239.06 76.7861 238.802 75.4419 238.436 74.0716C236.214 65.7371 223.375 45.1634 223.601 44.0251Z" fill="white"/>
</mask>
<g mask="url(#mask1_1_85)">
<path d="M174.706 45.9787C172.84 46.5185 171.372 47.0237 169.019 47.7804C154.044 42.2754 138.013 37.9933 121.005 34.8104L127.126 33.2493C142.849 35.8121 158.609 40.168 174.706 45.9787Z" fill="#263762"/>
</g>
<mask id="mask2_1_85" style="mask-type:luminance" maskUnits="userSpaceOnUse" x="25" y="31" width="215" height="108">
<path d="M223.601 44.0251C199.876 36.3064 152.469 25.6151 122.125 34.4721C91.1793 43.5069 60.5906 73.6878 60.5906 73.6878C60.5906 73.6878 42.4798 83.1215 33.5179 90.3827C23.9156 98.1665 24.023 113.283 26.2151 121.515C27.9108 127.886 70.8936 137.842 80.7281 137.764C83.5478 138.356 87.8955 138.336 92.1099 138.282L94.0613 137.764C93.7798 133.308 93.9668 129.054 94.9146 124.252C97.1002 113.185 106.284 105.77 113.868 107.026C121.091 108.222 126.002 116.225 123.606 131.981L134.521 126.817C152.531 120.731 172.051 115.349 193.506 110.872L201.495 109.916C201.495 105.001 201.834 100.671 203.167 95.2524C205.855 84.3227 214.92 77.61 222.292 79.6026C229.242 81.4802 232.674 89.3312 231.486 98.7063C234.602 97.091 236.349 95.1961 237.319 92.3362C239.06 87.1977 239.444 80.704 239.186 78.074C239.06 76.7861 238.802 75.4419 238.436 74.0716C236.214 65.7371 223.375 45.1634 223.601 44.0251Z" fill="white"/>
</mask>
<g mask="url(#mask2_1_85)">
<path d="M105.985 40.929L100.995 43.5525C110.326 48.9035 128.611 53.1531 150.261 56.8694C151.517 56.0151 153.014 55.1283 154.749 54.1115C134.738 50.2023 117.599 45.9223 105.985 40.929Z" fill="#263762"/>
</g>
<mask id="mask3_1_85" style="mask-type:luminance" maskUnits="userSpaceOnUse" x="25" y="31" width="215" height="108">
<path d="M223.601 44.0251C199.876 36.3064 152.469 25.6151 122.125 34.4721C91.1793 43.5069 60.5906 73.6878 60.5906 73.6878C60.5906 73.6878 42.4798 83.1215 33.5179 90.3827C23.9156 98.1665 24.023 113.283 26.2151 121.515C27.9108 127.886 70.8936 137.842 80.7281 137.764C83.5478 138.356 87.8955 138.336 92.1099 138.282L94.0613 137.764C93.7798 133.308 93.9668 129.054 94.9146 124.252C97.1002 113.185 106.284 105.77 113.868 107.026C121.091 108.222 126.002 116.225 123.606 131.981L134.521 126.817C152.531 120.731 172.051 115.349 193.506 110.872L201.495 109.916C201.495 105.001 201.834 100.671 203.167 95.2524C205.855 84.3227 214.92 77.61 222.292 79.6026C229.242 81.4802 232.674 89.3312 231.486 98.7063C234.602 97.091 236.349 95.1961 237.319 92.3362C239.06 87.1977 239.444 80.704 239.186 78.074C239.06 76.7861 238.802 75.4419 238.436 74.0716C236.214 65.7371 223.375 45.1634 223.601 44.0251Z" fill="white"/>
</mask>
<g mask="url(#mask3_1_85)">
<path d="M63.3739 73.8939C69.8128 81.4933 89.0841 85.6432 116.9 87.4948C116.9 87.4948 119.933 79.7696 98.1384 74.7438C74.8998 69.3863 63.3739 73.8939 63.3739 73.8939Z" fill="#263762"/>
</g>
<mask id="mask4_1_85" style="mask-type:luminance" maskUnits="userSpaceOnUse" x="25" y="31" width="215" height="108">
<path d="M223.601 44.0251C199.876 36.3064 152.469 25.6151 122.125 34.4721C91.1793 43.5069 60.5906 73.6878 60.5906 73.6878C60.5906 73.6878 42.4798 83.1215 33.5179 90.3827C23.9156 98.1665 24.023 113.283 26.2151 121.515C27.9108 127.886 70.8936 137.842 80.7281 137.764C83.5478 138.356 87.8955 138.336 92.1099 138.282L94.0613 137.764C93.7798 133.308 93.9668 129.054 94.9146 124.252C97.1002 113.185 106.284 105.77 113.868 107.026C121.091 108.222 126.002 116.225 123.606 131.981L134.521 126.817C152.531 120.731 172.051 115.349 193.506 110.872L201.495 109.916C201.495 105.001 201.834 100.671 203.167 95.2524C205.855 84.3227 214.92 77.61 222.292 79.6026C229.242 81.4802 232.674 89.3312 231.486 98.7063C234.602 97.091 236.349 95.1961 237.319 92.3362C239.06 87.1977 239.444 80.704 239.186 78.074C239.06 76.7861 238.802 75.4419 238.436 74.0716C236.214 65.7371 223.375 45.1634 223.601 44.0251Z" fill="white"/>
</mask>
<g mask="url(#mask4_1_85)">
<path d="M107.07 53.4653L119.204 56.7458L123.81 52.5005L111.676 49.22L107.07 53.4653Z" fill="#263762"/>
</g>
<mask id="mask5_1_85" style="mask-type:luminance" maskUnits="userSpaceOnUse" x="25" y="31" width="215" height="108">
<path d="M223.601 44.0251C199.876 36.3064 152.469 25.6151 122.125 34.4721C91.1793 43.5069 60.5906 73.6878 60.5906 73.6878C60.5906 73.6878 42.4798 83.1215 33.5179 90.3827C23.9156 98.1665 24.023 113.283 26.2151 121.515C27.9108 127.886 70.8936 137.842 80.7281 137.764C83.5478 138.356 87.8955 138.336 92.1099 138.282L94.0613 137.764C93.7798 133.308 93.9668 129.054 94.9146 124.252C97.1002 113.185 106.284 105.77 113.868 107.026C121.091 108.222 126.002 116.225 123.606 131.981L134.521 126.817C152.531 120.731 172.051 115.349 193.506 110.872L201.495 109.916C201.495 105.001 201.834 100.671 203.167 95.2524C205.855 84.3227 214.92 77.61 222.292 79.6026C229.242 81.4802 232.674 89.3312 231.486 98.7063C234.602 97.091 236.349 95.1961 237.319 92.3362C239.06 87.1977 239.444 80.704 239.186 78.074C239.06 76.7861 238.802 75.4419 238.436 74.0716C236.214 65.7371 223.375 45.1634 223.601 44.0251Z" fill="white"/>
</mask>
<g mask="url(#mask5_1_85)">
<path opacity="0.2" d="M24.7194 115.718C23.877 90.0466 54.2422 83.36 74.0809 82.9611C87.5044 68.508 121.003 26.8857 168.637 31.6166L193.072 28.3297L165.804 25.2465L109.591 33.2493L15.2804 100.246L24.7194 115.718Z" fill="white"/>
</g>
<mask id="mask6_1_85" style="mask-type:luminance" maskUnits="userSpaceOnUse" x="25" y="31" width="215" height="108">
<path d="M223.601 44.0251C199.876 36.3064 152.469 25.6151 122.125 34.4721C91.1793 43.5069 60.5906 73.6878 60.5906 73.6878C60.5906 73.6878 42.4798 83.1215 33.5179 90.3827C23.9156 98.1665 24.023 113.283 26.2151 121.515C27.9108 127.886 70.8936 137.842 80.7281 137.764C83.5478 138.356 87.8955 138.336 92.1099 138.282L94.0613 137.764C93.7798 133.308 93.9668 129.054 94.9146 124.252C97.1002 113.185 106.284 105.77 113.868 107.026C121.091 108.222 126.002 116.225 123.606 131.981L134.521 126.817C152.531 120.731 172.051 115.349 193.506 110.872L201.495 109.916C201.495 105.001 201.834 100.671 203.167 95.2524C205.855 84.3227 214.92 77.61 222.292 79.6026C229.242 81.4802 232.674 89.3312 231.486 98.7063C234.602 97.091 236.349 95.1961 237.319 92.3362C239.06 87.1977 239.444 80.704 239.186 78.074C239.06 76.7861 238.802 75.4419 238.436 74.0716C236.214 65.7371 223.375 45.1634 223.601 44.0251Z" fill="white"/>
</mask>
<g mask="url(#mask6_1_85)">
<path d="M11.0896 129.102C11.0896 129.102 17.5155 108.335 18.6782 112.336C20.1589 117.435 57.9902 129.863 67.2315 130.509C72.4969 130.876 80.7733 127.426 85.8517 120.616C88.6714 116.837 91.1472 108.782 104.47 100.643C107.264 98.9363 111.416 96.8006 123.653 93.7023C195.92 75.4094 216.292 63.272 218.978 61.4551C221.664 59.6382 234.796 40.8141 234.796 40.8141L255.378 107.282L79.5031 150.4L25.0009 138.308L11.0896 129.102Z" fill="#C5C9D2"/>
</g>
<path d="M122.112 131.758C124.648 122.212 121.088 112.955 114.161 111.082C107.234 109.21 99.5632 115.431 97.0278 124.978C94.4923 134.524 98.0523 143.781 104.979 145.654C111.906 147.526 119.577 141.305 122.112 131.758Z" fill="#263762"/>
<path d="M118.934 130.9C120.827 123.773 118.169 116.862 112.997 115.464C107.826 114.066 102.099 118.71 100.206 125.837C98.3131 132.964 100.971 139.875 106.143 141.273C111.314 142.671 117.041 138.027 118.934 130.9Z" fill="#E5E7EC"/>
<path d="M117.205 130.431C118.748 124.619 116.581 118.984 112.365 117.844C108.148 116.704 103.478 120.492 101.935 126.304C100.391 132.116 102.558 137.751 106.775 138.891C110.992 140.031 115.661 136.243 117.205 130.431Z" fill="#001446"/>
<path d="M118.158 122.214L116.733 119.529L111.162 125.034V117.036L108.312 117.808V125.804L102.744 123.311L101.317 126.767L106.887 129.26L101.317 134.763L102.744 137.447L108.312 131.942V139.941L111.162 139.171V131.173L116.733 133.666L118.158 130.212L112.587 127.719L118.158 122.214Z" fill="#E5E7EC"/>
<path d="M108.377 128.046C108.134 128.959 108.476 129.844 109.135 130.021C109.797 130.201 110.53 129.605 110.773 128.694C111.016 127.782 110.674 126.897 110.014 126.719C109.353 126.539 108.62 127.133 108.377 128.046Z" fill="#263762"/>
<path d="M123.606 91.031C154.343 81.6992 185.183 72.7577 212.89 61.1862C213.616 60.8826 214.269 60.6463 214.777 60.3145C216.513 59.1784 221.854 47.7912 221.854 47.7912C208.626 44.9205 186.073 44.7449 172.133 49.7382C137.352 62.1965 123.606 91.031 123.606 91.031Z" fill="#001446"/>
<path d="M170.001 51.9715L172.271 75.0084L177.807 73.1806L175.028 50.3129L170.001 51.9715Z" fill="#263762"/>
<path d="M208.288 62.279L212.053 60.7331L207.749 47.4206L204.314 47.1712L208.288 62.279Z" fill="#263762"/>
<path d="M72.4131 136.877C74.2399 136.68 64.7063 123.252 63.8187 122.274C61.7125 119.954 55.2221 117.643 43.9499 114.95C34.2702 112.637 32.2392 113.636 31.2141 114.564C30.5457 115.169 26.1572 122.153 27.3542 123.087C30.1352 125.258 36.5397 128.068 45.8089 130.765C55.8389 133.683 70.2941 137.107 72.4131 136.877Z" fill="#C5C9D2"/>
<path d="M228.636 57.2704C230.167 60.4511 234.873 70.7044 235.866 74.5507L238.191 73.2043C236.941 67.901 229.765 54.4193 228.636 53.6886C227.577 54.0464 228.636 57.2704 228.636 57.2704Z" fill="#667290"/>
<path d="M37.5347 123.016L53.6124 127.363V120.536L37.5347 116.188V123.016Z" fill="#001446"/>
<path d="M36.5247 123.244L52.6024 127.589V120.763L36.5247 116.416V123.244Z" fill="white"/>
<path d="M166.346 84.6652L174.654 81.5908L174.343 83.6007L165.894 86.79L166.346 84.6652Z" fill="#667290"/>
<path d="M201.916 71.279L210.128 67.9509L209.879 69.9673L201.529 73.4169L201.916 71.279Z" fill="#667290"/>
<path opacity="0.2" d="M126.541 90.0489C172.604 55.8265 218.54 52.1276 218.54 52.1276L220.104 48.6845C205.32 46.7831 189.584 45.1287 173.103 50.9785C139.131 63.0357 126.541 90.0489 126.541 90.0489Z" fill="white"/>
<path d="M128.394 91.4625C128.394 91.4625 128.572 91.018 130.446 92.3016C132.49 93.7001 139.903 95.2395 141.781 94.4849C144.411 93.4269 144.614 90.6386 143.638 89.5957C140.616 86.3651 138.308 86.4237 137.175 86.4887C136.043 86.5516 128.394 91.4625 128.394 91.4625Z" fill="#BEC3CD"/>
<path d="M125.42 90.5368C125.42 90.5368 131.121 84.4637 133.79 84.4117C135.869 84.3705 140.721 84.5678 141.845 87.3431C142.969 90.1205 139.576 91.6144 135.265 92.5076C130.951 93.4009 128.007 92.7201 126.961 92.1521C125.916 91.584 125.42 90.5368 125.42 90.5368Z" fill="#EBEDF0"/>
<mask id="mask7_1_85" style="mask-type:luminance" maskUnits="userSpaceOnUse" x="125" y="84" width="18" height="9">
<path d="M125.42 90.5368C125.42 90.5368 131.121 84.4637 133.79 84.4117C135.869 84.3705 140.721 84.5678 141.845 87.3431C142.969 90.1205 139.576 91.6144 135.265 92.5076C130.951 93.4009 128.007 92.7201 126.961 92.1521C125.916 91.584 125.42 90.5368 125.42 90.5368Z" fill="white"/>
</mask>
<g mask="url(#mask7_1_85)">
<path d="M139.344 84.6437C139.344 84.6437 139.716 87.6574 134.889 88.8239C132.381 89.431 124.435 90.6604 124.435 90.6604L126.37 94.1988L142.342 94.5045L144.412 87.5686L141.491 83.5878L139.344 84.6437Z" fill="#C5C9D2"/>
</g>
<path d="M50.7391 101.64C49.714 102.215 48.504 101.996 48.0398 101.15C47.5756 100.304 48.029 99.1552 49.0563 98.5806C50.0815 98.0061 51.2914 98.2251 51.7556 99.0707C52.2198 99.9141 51.7642 101.065 50.7391 101.64Z" fill="#667290"/>
<path d="M172.471 49.8316C173.507 57.9623 175.25 75.0344 175.25 75.0344C175.25 75.0344 177.736 78.1804 177.242 82.9071C176.44 90.5629 175.415 104.287 176.113 109.526" stroke="#001446" stroke-width="0.305801" stroke-miterlimit="10"/>
<path d="M123.702 90.9422C127.221 94.717 127.891 109.023 130.158 122.008L191.499 105.343C194.091 104.643 196.5 102.342 197.889 99.2485L210.99 73.3844C212.451 70.1235 212.623 65.5638 210.461 62.1901L206.012 46.4189" stroke="#001446" stroke-width="0.305801" stroke-miterlimit="10"/>
<path d="M118.353 89.2943C118.353 89.2943 118.093 90.825 115.802 92.0847C113.26 93.4854 91.1021 102.841 85.553 105.458" stroke="#001446" stroke-width="0.305801" stroke-miterlimit="10"/>
<path d="M237.953 73.1458C237.953 73.1458 233.272 76.2528 232.423 77.0463C230.13 79.195 227.282 82.4906 227.282 82.4906" stroke="#001446" stroke-width="0.305801" stroke-miterlimit="10"/>
<path d="M90.4982 103.238C90.4982 103.238 98.9314 105.621 100.995 112.336" stroke="#001446" stroke-width="0.305801" stroke-miterlimit="10"/>
<path d="M29.8085 94.4393C28.979 96.2151 31.2506 101.23 34.9729 103.001C40.3802 105.575 53.707 108.762 63.3093 110.326C70.294 111.462 85.0199 107.047 90.8183 103.238C89.8835 102.386 87.0015 102.386 84.704 103.066C80.0511 104.68 70.0018 107.585 64.1367 106.729C54.0121 105.25 40.9583 102.167 36.501 100.111C34.2422 99.0705 30.9777 94.5976 32.3187 91.4429C31.4935 92.0912 30.2577 93.4767 29.8085 94.4393Z" fill="#667290"/>
<path d="M64.1368 106.726C53.5695 105.046 44.5517 103.008 36.501 100.109L35.3705 103.184C38.8263 104.966 52.2284 108.754 63.0794 110.304L64.1368 106.726Z" fill="#CBCFD7"/>
<path d="M229.861 102.543C232.396 92.9963 228.836 83.7393 221.909 81.8669C214.982 79.9945 207.311 86.2157 204.776 95.7624C202.24 105.309 205.8 114.566 212.727 116.439C219.654 118.311 227.325 112.09 229.861 102.543Z" fill="#263762"/>
<path d="M226.682 101.684C228.575 94.5569 225.917 87.646 220.746 86.2481C215.574 84.8501 209.847 89.4945 207.954 96.6215C206.061 103.749 208.719 110.659 213.891 112.057C219.063 113.455 224.79 108.811 226.682 101.684Z" fill="#E5E7EC"/>
<path d="M224.953 101.216C226.497 95.4042 224.33 89.7686 220.113 88.6288C215.896 87.489 211.227 91.2766 209.683 97.0885C208.139 102.901 210.306 108.536 214.523 109.676C218.74 110.816 223.409 107.028 224.953 101.216Z" fill="#001446"/>
<path d="M225.907 92.9954L224.482 90.3112L218.914 95.814V87.8178L216.064 88.5875V96.5859L210.493 94.0925L209.068 97.5464L214.639 100.04L209.068 105.543L210.493 108.227L216.064 102.724V110.72L218.914 109.95V101.952L224.482 104.445L225.907 100.992L220.339 98.4982L225.907 92.9954Z" fill="#E5E7EC"/>
<path d="M216.128 98.8255C215.885 99.7383 216.227 100.623 216.887 100.801C217.549 100.981 218.282 100.384 218.525 99.4738C218.767 98.561 218.426 97.6764 217.766 97.4986C217.106 97.3208 216.371 97.9127 216.128 98.8255Z" fill="#263762"/>
</svg>
