<svg width="266" height="240" viewBox="0 0 266 240" fill="none" xmlns="http://www.w3.org/2000/svg">
<path d="M121.713 71.5962C129.829 67.9966 138.915 67.2134 147.527 69.371L195.6 81.4148C222.64 88.1892 234.523 119.941 218.575 142.804L196.895 173.883C188.404 186.055 173.846 192.493 159.128 190.585L63.4694 178.184C23.5543 173.009 15.6553 118.636 52.4479 102.317L121.713 71.5962Z" fill="#D9D9D9"/>
<path d="M68.3077 49.2709L60.5677 55.3976C60.5677 55.3976 61.3669 50.9349 62.9439 49.2709C65.3242 46.7576 68.3077 49.2709 68.3077 49.2709Z" fill="#EBEDF0"/>
<path d="M227.534 31.9434L197.307 43.5505L148.823 28.5937L181.751 18.3913C182.95 18.0196 184.227 17.9958 185.437 18.3221L227.415 29.631C228.544 29.9379 228.623 31.5263 227.534 31.9434Z" fill="#EBEDF0"/>
<path d="M154.059 29.2031L183.598 20.0185L223.76 30.932L193.469 41.759L154.059 29.2031Z" fill="#001446"/>
<path d="M183.598 20.0185L184.346 32.5744L203.17 38.2926L223.76 30.932L183.598 20.0185Z" fill="#263762"/>
<path d="M203.291 74.897C195.345 72.7229 182.343 72.7229 174.398 74.897L29.5607 110.656C8.31402 114.695 72.0839 136.684 96.231 131.517C100.759 130.549 106.309 129.306 117.175 126.452C138.776 120.779 196.962 105.256 210.268 100.778C228.47 94.6535 237.201 92.017 239.747 90.2557C242.296 88.4945 243.259 85.8342 235.313 83.6601L203.291 74.897Z" fill="#576485"/>
<path d="M218.369 77.5507L190.232 75.5496L122.273 96.5531L116.293 107.927L89.7568 106.023L91.9497 86.8606L206.03 54.6368L220.922 62.6912L218.369 77.5507Z" fill="#001446"/>
<path d="M54.1441 98.5737C56.6345 89.1482 53.1387 80.0089 46.3359 78.1605C39.5332 76.3121 31.9997 82.4546 29.5093 91.8802C27.0189 101.306 30.5148 110.445 37.3175 112.293C44.1202 114.142 51.6538 107.999 54.1441 98.5737Z" fill="#001446"/>
<path d="M37.3199 112.298L47.3608 115.027L56.3787 80.8958L46.3378 78.1676L37.3199 112.298Z" fill="#001446"/>
<path d="M63.9198 101.228C66.4099 91.804 62.9138 82.6656 56.1111 80.8173C49.3083 78.9689 41.775 85.1105 39.285 94.5348C36.7949 103.959 40.291 113.098 47.0937 114.946C53.8965 116.794 61.4298 110.653 63.9198 101.228Z" fill="#263762"/>
<path d="M206.554 83.6694C209.044 74.245 205.548 65.1066 198.746 63.2582C191.943 61.4099 184.41 67.5514 181.92 76.9758C179.429 86.4002 182.926 95.5386 189.728 97.387C196.531 99.2353 204.064 93.0938 206.554 83.6694Z" fill="#001446"/>
<path d="M189.735 97.3933L199.776 100.122L208.794 65.9907L198.753 63.2625L189.735 97.3933Z" fill="#001446"/>
<path d="M103.861 111.749C106.351 102.324 102.855 93.1859 96.0525 91.3375C89.2498 89.4891 81.7165 95.6307 79.2264 105.055C76.7364 114.479 80.2325 123.618 87.0352 125.466C93.8379 127.315 101.371 121.173 103.861 111.749Z" fill="#001446"/>
<path d="M87.0399 125.473L97.0807 128.201L106.099 94.0705L96.0578 91.3423L87.0399 125.473Z" fill="#001446"/>
<path d="M234.149 49.0872L233.601 48.681C232.862 38.5563 232.619 31.8419 227.856 29.8558C228.564 30.5474 228.446 31.2432 227.534 31.9434L197.307 43.5506C195.502 35.1051 192.721 29.9207 189.791 25.2376L147.675 14C147.675 14 111.031 22.962 95.7217 27.135C82.3067 30.7916 61.8101 54.5396 61.8101 54.5396C61.8101 54.5396 36.7169 64.0225 27.5107 72.4528C24.8191 74.9186 25.0493 89.4864 27.5107 100.058C28.8191 105.675 73.4798 116.474 82.328 115.731L86.117 114.868C85.8719 110.97 86.3258 104.668 87.5832 100.205C90.2577 90.7117 99.0739 85.0108 105.674 86.1108C111.963 87.1568 118.375 94.1414 116.291 107.927L122.394 105.172C138.07 99.8466 155.063 95.1376 173.738 91.2196L188.474 88.5982C188.474 84.2977 188.717 78.2445 190.151 73.5809C193.503 62.6718 203.291 58.5203 209.708 60.2643C215.758 61.9089 219.404 69.3452 218.369 77.5465C220.457 75.5993 236.704 67.2014 236.698 59.804C236.698 58.5809 236.698 56.1669 236.698 54.1701C236.698 52.1625 235.752 50.2737 234.149 49.0872Z" fill="#EBEDF0"/>
<mask id="mask0_1_603" style="mask-type:luminance" maskUnits="userSpaceOnUse" x="25" y="14" width="212" height="102">
<path d="M234.149 49.0872L233.601 48.681C232.862 38.5563 232.619 31.8419 227.856 29.8558C228.564 30.5474 228.446 31.2432 227.534 31.9434L197.307 43.5506C195.502 35.1051 192.721 29.9207 189.791 25.2376L147.675 14C147.675 14 111.031 22.962 95.7217 27.135C82.3067 30.7916 61.8101 54.5396 61.8101 54.5396C61.8101 54.5396 36.7169 64.0225 27.5107 72.4528C24.8191 74.9186 25.0493 89.4864 27.5107 100.058C28.8191 105.675 73.4798 116.474 82.328 115.731L86.117 114.868C85.8719 110.97 86.3258 104.668 87.5832 100.205C90.2577 90.7117 99.0739 85.0108 105.674 86.1108C111.963 87.1568 118.375 94.1414 116.291 107.927L122.394 105.172C138.07 99.8466 155.063 95.1376 173.738 91.2196L188.474 88.5982C188.474 84.2977 188.717 78.2445 190.151 73.5809C193.503 62.6718 203.291 58.5203 209.708 60.2643C215.758 61.9089 219.404 69.3452 218.369 77.5465C220.457 75.5993 236.704 67.2014 236.698 59.804C236.698 58.5809 236.698 56.1669 236.698 54.1701C236.698 52.1625 235.752 50.2737 234.149 49.0872Z" fill="white"/>
</mask>
<g mask="url(#mask0_1_603)">
<path d="M133.659 41.0848C110.181 37.9318 95.4105 33.0218 90.5964 29.2983C82.1191 33.8495 73.2475 41.7115 61.8101 54.5396C61.8101 60.6706 77.2603 67.3591 107.445 68.0658C117.395 56.1777 127.779 43.5765 133.659 41.0848Z" fill="#001446"/>
</g>
<mask id="mask1_1_603" style="mask-type:luminance" maskUnits="userSpaceOnUse" x="25" y="14" width="212" height="102">
<path d="M234.149 49.0872L233.601 48.681C232.862 38.5563 232.619 31.8419 227.856 29.8558C228.564 30.5474 228.446 31.2432 227.534 31.9434L197.307 43.5506C195.502 35.1051 192.721 29.9207 189.791 25.2376L147.675 14C147.675 14 111.031 22.962 95.7217 27.135C82.3067 30.7916 61.8101 54.5396 61.8101 54.5396C61.8101 54.5396 36.7169 64.0225 27.5107 72.4528C24.8191 74.9186 25.0493 89.4864 27.5107 100.058C28.8191 105.675 73.4798 116.474 82.328 115.731L86.117 114.868C85.8719 110.97 86.3258 104.668 87.5832 100.205C90.2577 90.7117 99.0739 85.0108 105.674 86.1108C111.963 87.1568 118.375 94.1414 116.291 107.927L122.394 105.172C138.07 99.8466 155.063 95.1376 173.738 91.2196L188.474 88.5982C188.474 84.2977 188.717 78.2445 190.151 73.5809C193.503 62.6718 203.291 58.5203 209.708 60.2643C215.758 61.9089 219.404 69.3452 218.369 77.5465C220.457 75.5993 236.704 67.2014 236.698 59.804C236.698 58.5809 236.698 56.1669 236.698 54.1701C236.698 52.1625 235.752 50.2737 234.149 49.0872Z" fill="white"/>
</mask>
<g mask="url(#mask1_1_603)">
<path d="M63.5767 54.5396C69.1814 61.1871 85.1452 64.1542 109.358 65.775C109.358 65.775 113.868 59.4928 94.8969 55.095C74.6689 50.4055 63.5767 54.5396 63.5767 54.5396Z" fill="#263762"/>
</g>
<mask id="mask2_1_603" style="mask-type:luminance" maskUnits="userSpaceOnUse" x="25" y="14" width="212" height="102">
<path d="M234.149 49.0872L233.601 48.681C232.862 38.5563 232.619 31.8419 227.856 29.8558C228.564 30.5474 228.446 31.2432 227.534 31.9434L197.307 43.5506C195.502 35.1051 192.721 29.9207 189.791 25.2376L147.675 14C147.675 14 111.031 22.962 95.7217 27.135C82.3067 30.7916 61.8101 54.5396 61.8101 54.5396C61.8101 54.5396 36.7169 64.0225 27.5107 72.4528C24.8191 74.9186 25.0493 89.4864 27.5107 100.058C28.8191 105.675 73.4798 116.474 82.328 115.731L86.117 114.868C85.8719 110.97 86.3258 104.668 87.5832 100.205C90.2577 90.7117 99.0739 85.0108 105.674 86.1108C111.963 87.1568 118.375 94.1414 116.291 107.927L122.394 105.172C138.07 99.8466 155.063 95.1376 173.738 91.2196L188.474 88.5982C188.474 84.2977 188.717 78.2445 190.151 73.5809C193.503 62.6718 203.291 58.5203 209.708 60.2643C215.758 61.9089 219.404 69.3452 218.369 77.5465C220.457 75.5993 236.704 67.2014 236.698 59.804C236.698 58.5809 236.698 56.1669 236.698 54.1701C236.698 52.1625 235.752 50.2737 234.149 49.0872Z" fill="white"/>
</mask>
<g mask="url(#mask2_1_603)">
<path d="M92.4291 39.9696L102.991 42.8395L107.001 39.1246L96.4398 36.2547L92.4291 39.9696Z" fill="#263762"/>
</g>
<mask id="mask3_1_603" style="mask-type:luminance" maskUnits="userSpaceOnUse" x="25" y="14" width="212" height="102">
<path d="M234.149 49.0872L233.601 48.681C232.862 38.5563 232.619 31.8419 227.856 29.8558C228.564 30.5474 228.446 31.2432 227.534 31.9434L197.307 43.5506C195.502 35.1051 192.721 29.9207 189.791 25.2376L147.675 14C147.675 14 111.031 22.962 95.7217 27.135C82.3067 30.7916 61.8101 54.5396 61.8101 54.5396C61.8101 54.5396 36.7169 64.0225 27.5107 72.4528C24.8191 74.9186 25.0493 89.4864 27.5107 100.058C28.8191 105.675 73.4798 116.474 82.328 115.731L86.117 114.868C85.8719 110.97 86.3258 104.668 87.5832 100.205C90.2577 90.7117 99.0739 85.0108 105.674 86.1108C111.963 87.1568 118.375 94.1414 116.291 107.927L122.394 105.172C138.07 99.8466 155.063 95.1376 173.738 91.2196L188.474 88.5982C188.474 84.2977 188.717 78.2445 190.151 73.5809C193.503 62.6718 203.291 58.5203 209.708 60.2643C215.758 61.9089 219.404 69.3452 218.369 77.5465C220.457 75.5993 236.704 67.2014 236.698 59.804C236.698 58.5809 236.698 56.1669 236.698 54.1701C236.698 52.1625 235.752 50.2737 234.149 49.0872Z" fill="white"/>
</mask>
<g mask="url(#mask3_1_603)">
<path d="M132.968 35.2282L105.991 27.8978L123.833 23.3661L149.465 30.422L132.968 35.2282Z" fill="#263762"/>
</g>
<mask id="mask4_1_603" style="mask-type:luminance" maskUnits="userSpaceOnUse" x="25" y="14" width="212" height="102">
<path d="M234.149 49.0872L233.601 48.681C232.862 38.5563 232.619 31.8419 227.856 29.8558C228.564 30.5474 228.446 31.2432 227.534 31.9434L197.307 43.5506C195.502 35.1051 192.721 29.9207 189.791 25.2376L147.675 14C147.675 14 111.031 22.962 95.7217 27.135C82.3067 30.7916 61.8101 54.5396 61.8101 54.5396C61.8101 54.5396 36.7169 64.0225 27.5107 72.4528C24.8191 74.9186 25.0493 89.4864 27.5107 100.058C28.8191 105.675 73.4798 116.474 82.328 115.731L86.117 114.868C85.8719 110.97 86.3258 104.668 87.5832 100.205C90.2577 90.7117 99.0739 85.0108 105.674 86.1108C111.963 87.1568 118.375 94.1414 116.291 107.927L122.394 105.172C138.07 99.8466 155.063 95.1376 173.738 91.2196L188.474 88.5982C188.474 84.2977 188.717 78.2445 190.151 73.5809C193.503 62.6718 203.291 58.5203 209.708 60.2643C215.758 61.9089 219.404 69.3452 218.369 77.5465C220.457 75.5993 236.704 67.2014 236.698 59.804C236.698 58.5809 236.698 56.1669 236.698 54.1701C236.698 52.1625 235.752 50.2737 234.149 49.0872Z" fill="white"/>
</mask>
<g mask="url(#mask4_1_603)">
<path d="M23.8708 101.673C24.6571 107.992 47.711 100.89 52.2863 100.793C61.2283 101.336 60.9299 95.157 60.9299 95.157L76.3183 84.5181C86.8671 80.1332 99.9113 74.9315 103.732 72.3706L113.292 71.3095L187.327 29.3004L194.119 27.5088L234.78 26.3138L246.066 78.3287L77.8974 147.116L19.5319 112.48L23.8708 101.673Z" fill="#C5C9D2"/>
</g>
<mask id="mask5_1_603" style="mask-type:luminance" maskUnits="userSpaceOnUse" x="25" y="14" width="212" height="102">
<path d="M234.149 49.0872L233.601 48.681C232.862 38.5563 232.619 31.8419 227.856 29.8558C228.564 30.5474 228.446 31.2432 227.534 31.9434L197.307 43.5506C195.502 35.1051 192.721 29.9207 189.791 25.2376L147.675 14C147.675 14 111.031 22.962 95.7217 27.135C82.3067 30.7916 61.8101 54.5396 61.8101 54.5396C61.8101 54.5396 36.7169 64.0225 27.5107 72.4528C24.8191 74.9186 25.0493 89.4864 27.5107 100.058C28.8191 105.675 73.4798 116.474 82.328 115.731L86.117 114.868C85.8719 110.97 86.3258 104.668 87.5832 100.205C90.2577 90.7117 99.0739 85.0108 105.674 86.1108C111.963 87.1568 118.375 94.1414 116.291 107.927L122.394 105.172C138.07 99.8466 155.063 95.1376 173.738 91.2196L188.474 88.5982C188.474 84.2977 188.717 78.2445 190.151 73.5809C193.503 62.6718 203.291 58.5203 209.708 60.2643C215.758 61.9089 219.404 69.3452 218.369 77.5465C220.457 75.5993 236.704 67.2014 236.698 59.804C236.698 58.5809 236.698 56.1669 236.698 54.1701C236.698 52.1625 235.752 50.2737 234.149 49.0872Z" fill="white"/>
</mask>
<g mask="url(#mask5_1_603)">
<path opacity="0.2" d="M29.2879 102.645C27.5639 94.2581 26.7498 85.7607 27.924 82.1798C29.3199 77.9182 27.5298 73.8856 33.2666 72.3793C41.045 70.3349 62.3684 67.9513 76.3183 64.8825C82.9417 54.6369 97.5075 33.8171 105.348 31.4745C115.645 28.3992 158.882 17.7905 172.397 14.4754L161.814 10.445L91.6172 22.9749L15.0503 76.0661L17.5436 100.536L29.2879 102.645Z" fill="white"/>
</g>
<path d="M216.329 86.3266C218.82 76.901 215.324 67.7617 208.521 65.9133C201.719 64.065 194.185 70.2075 191.695 79.633C189.204 89.0586 192.7 98.1979 199.503 100.046C206.306 101.895 213.839 95.7521 216.329 86.3266Z" fill="#263762"/>
<path d="M213.209 85.4784C215.068 78.4416 212.458 71.6183 207.378 70.2382C202.299 68.8581 196.674 73.4438 194.815 80.4806C192.956 87.5175 195.566 94.3408 200.645 95.7209C205.725 97.101 211.35 92.5153 213.209 85.4784Z" fill="#E5E7EC"/>
<path d="M209.544 82.4024L211.871 86.126C212.508 87.146 211.613 88.9311 210.507 88.8424L206.473 88.5183C205.991 88.4794 205.476 88.8295 205.167 89.4043L202.571 94.2214C201.859 95.5418 200.41 95.3473 200.363 93.9253L200.197 88.7366C200.178 88.1185 199.858 87.656 199.389 87.5674L195.457 86.8197C194.379 86.6144 194.379 84.7105 195.457 83.9195L199.389 81.0366C199.858 80.693 200.176 80.0577 200.197 79.4288L200.363 74.1493C200.408 72.7014 201.859 71.7202 202.571 72.6538L205.167 76.0597C205.476 76.466 205.991 76.5351 206.473 76.2347L210.507 73.7192C211.613 73.0299 212.508 74.3265 211.871 75.6945L209.544 80.6822C209.265 81.2809 209.265 81.9594 209.544 82.4024Z" fill="#263762"/>
<path d="M202.006 82.4305C201.599 83.9692 202.17 85.4625 203.281 85.765C204.391 86.0676 205.623 85.0648 206.03 83.524C206.437 81.9853 205.866 80.492 204.755 80.1895C203.643 79.8869 202.413 80.8918 202.006 82.4305Z" fill="#E5E7EC"/>
<path d="M113.637 114.406C116.127 104.98 112.631 95.8411 105.828 93.9927C99.0256 92.1443 91.4921 98.2868 89.0017 107.712C86.5113 117.138 90.0072 126.277 96.8099 128.126C103.613 129.974 111.146 123.831 113.637 114.406Z" fill="#263762"/>
<path d="M110.516 113.558C112.375 106.521 109.765 99.6974 104.685 98.3173C99.6061 96.9372 93.9813 101.523 92.1221 108.56C90.2628 115.597 92.8732 122.42 97.9525 123.8C103.032 125.18 108.657 120.594 110.516 113.558Z" fill="#E5E7EC"/>
<path d="M106.85 110.486L109.177 114.209C109.814 115.229 108.919 117.014 107.813 116.926L103.779 116.601C103.298 116.563 102.782 116.913 102.473 117.487L99.8773 122.305C99.1655 123.625 97.7164 123.43 97.6695 122.008L97.5033 116.82C97.4841 116.202 97.1644 115.739 96.6956 115.651L92.7638 114.903C91.6855 114.698 91.6855 112.794 92.7638 112.003L96.6956 109.12C97.1644 108.776 97.482 108.141 97.5033 107.512L97.6695 102.232C97.7142 100.785 99.1655 99.8034 99.8773 100.737L102.473 104.143C102.782 104.549 103.298 104.618 103.779 104.318L107.813 101.802C108.919 101.113 109.814 102.41 109.177 103.778L106.85 108.765C106.573 109.364 106.573 110.04 106.85 110.486Z" fill="#263762"/>
<path d="M99.3126 110.512C98.9055 112.05 99.4767 113.544 100.587 113.846C101.697 114.149 102.929 113.146 103.336 111.605C103.743 110.066 103.172 108.573 102.062 108.271C100.951 107.97 99.7196 108.973 99.3126 110.512Z" fill="#E5E7EC"/>
<path d="M133.017 41.2922C133.017 41.2922 135.206 40.1641 136.894 39.5482C142.447 37.5211 183.888 25.3889 189.793 25.2397" stroke="#001446" stroke-width="0.303229" stroke-miterlimit="10"/>
<path d="M31.8282 79.1803L31.4702 89.1947C31.4702 89.1947 28.3119 84.155 28.0583 81.646C27.6705 77.7928 28.8575 71.7613 28.8575 71.7613C28.736 74.3524 29.3945 76.8614 31.8282 79.1803Z" fill="#667290"/>
<path d="M35.3956 93.158C41.1069 95.4769 47.5427 97.1344 54.4772 98.3381C56.6785 98.7206 58.7435 97.1409 58.9865 94.8891L59.7707 87.4766C47.8495 86.0459 39.3296 83.7249 33.2646 80.3169C33.2646 80.3169 33.0664 85.8622 32.9449 89.3632C32.8874 91.0272 33.8719 92.54 35.3956 93.158Z" fill="#C5C9D2"/>
<path d="M148.659 65.4617L155.926 62.8771L155.632 65.0144L148.237 67.6963L148.659 65.4617Z" fill="#667290"/>
<path d="M179.372 54.9502L186.52 52.0371L186.302 54.1852L179.036 57.2021L179.372 54.9502Z" fill="#667290"/>
<path d="M113.294 71.3075C138.371 65.5676 166.445 55.7175 190.004 46.6474C192.47 45.6987 191.515 43.0535 191.34 41.8606C191.144 40.5294 189.814 35.0338 188.911 32.5766C187.977 30.0309 187.438 28.6456 184.346 29.268C183.33 29.4712 181.949 29.6721 180.674 29.9769C163.784 34.0029 138.65 41.2101 135.219 43.972C123.658 53.2798 113.294 71.3075 113.294 71.3075Z" fill="#001446"/>
<path d="M67.4531 113.974C69.0429 113.801 65.3114 105.156 64.5378 104.301C62.7051 102.271 51.9006 99.4512 42.1681 96.7844C33.4392 94.3921 30.3343 93.8691 29.4414 94.6795C28.8596 95.209 27.191 101.091 28.233 101.908C30.6539 103.808 36.2288 106.267 44.297 108.625C53.028 111.179 65.6097 114.175 67.4531 113.974Z" fill="#001446"/>
<path d="M36.5335 102.114L52.8468 106.546V99.5829L36.5335 95.1505V102.114Z" fill="#001446"/>
<path d="M35.5085 102.345L51.8218 106.777V99.8142L35.5085 95.3818V102.345Z" fill="#F7F6F6"/>
<path d="M185.41 47.1596L188.687 45.8067L184.229 30.476L181.107 31.2303L185.41 47.1596Z" fill="#263762"/>
<path d="M152.378 38.7811L154.36 58.0622L159.178 56.463L156.768 37.5255L152.378 38.7811Z" fill="#263762"/>
<path d="M154.55 37.6832C155.451 44.7974 156.838 58.6824 156.838 58.6824C156.838 58.6824 158.469 62.6004 158.701 66.7496C159.176 75.1995 158.773 85.8147 157.719 90.0396" stroke="#001446" stroke-width="0.303229" stroke-miterlimit="10"/>
<path d="M113.294 71.3074C116.357 74.6117 115.747 89.6009 117.721 100.964L179.845 83.9476C182.1 83.3338 184.199 81.3219 185.407 78.614C185.407 78.614 192.323 53.6644 187.33 47.5702L182.575 30.3442" stroke="#001446" stroke-width="0.303229" stroke-miterlimit="10"/>
<path d="M70.5432 94.699C70.5432 94.699 81.9763 92.486 84.6146 91.9479C86.3066 91.6021 88.9619 92.4774 90.3002 94.2991" stroke="#001446" stroke-width="0.303229" stroke-miterlimit="10"/>
<path d="M107.445 68.0658C107.445 68.0658 104.96 70.9659 103.732 72.3685C102.062 74.2832 81.8676 82.1387 76.3183 84.5159" stroke="#001446" stroke-width="0.303229" stroke-miterlimit="10"/>
<path d="M233.601 48.6809L214.141 58.4468L212.082 61.2778" stroke="#001446" stroke-width="0.303229" stroke-miterlimit="10"/>
<path d="M232.28 36.4082L229.32 40.5705V50.8291L233.601 48.681C233.601 48.681 233.077 38.8178 232.28 36.4082Z" fill="#667290"/>
<path d="M61.8484 87.5781C66.2192 87.4161 71.1143 86.221 76.3183 84.5159C76.3183 84.5159 72.8873 93.9641 70.5432 94.6967C65.2965 96.3413 60.6188 96.9767 60.6188 96.9767L61.8484 87.5781Z" fill="#667290"/>
<path opacity="0.2" d="M115.647 70.1491C144.749 51.4363 170.882 41.0956 188.427 35.345C187.703 32.2935 187.33 29.8515 185.113 30.2686C169.201 33.9338 139.404 41.8693 135.896 44.6959C124.64 53.7573 115.647 70.1491 115.647 70.1491Z" fill="white"/>
<path d="M118.724 71.4652C118.724 71.4652 117.865 71.5062 119.54 72.9714C121.367 74.5685 127.532 76.038 129.307 75.7873C133.017 75.2622 133.697 72.8958 133.022 71.7656C130.366 67.3181 127.249 66.2008 126.262 66.2397C125.273 66.2808 118.724 71.4652 118.724 71.4652Z" fill="#BEC3CD"/>
<path d="M116.099 70.363C116.099 70.363 120.913 63.8431 123.246 63.8625C125.062 63.8776 129.307 64.2299 130.366 67.3159C131.425 70.4019 128.502 71.9514 124.757 72.8115C121.013 73.6716 118.42 72.8396 117.49 72.1848C116.561 71.53 116.099 70.363 116.099 70.363Z" fill="#EBEDF0"/>
<mask id="mask6_1_603" style="mask-type:luminance" maskUnits="userSpaceOnUse" x="116" y="63" width="15" height="11">
<path d="M116.099 70.363C116.099 70.363 120.913 63.8431 123.246 63.8625C125.062 63.8776 129.307 64.2299 130.366 67.3159C131.425 70.4019 128.502 71.9514 124.757 72.8115C121.013 73.6716 118.42 72.8396 117.49 72.1848C116.561 71.53 116.099 70.363 116.099 70.363Z" fill="white"/>
</mask>
<g mask="url(#mask6_1_603)">
<path d="M128.105 64.2731C128.105 64.2731 128.514 67.599 124.329 68.7466C122.153 69.343 115.244 70.4711 115.244 70.4711L117.032 74.4194L130.999 75.2082L132.615 67.6358L129.951 63.1732L128.105 64.2731Z" fill="#C5C9D2"/>
</g>
<path d="M45.1769 92.7424C46.2967 92.4381 46.8721 90.9336 46.4621 89.3819C46.0521 87.8301 44.812 86.8189 43.6923 87.1231C42.5725 87.4274 41.9971 88.9319 42.4071 90.4836C42.8171 92.0354 44.0572 93.0466 45.1769 92.7424Z" fill="#667290"/>
</svg>
