<svg width="266" height="240" viewBox="0 0 266 240" fill="none" xmlns="http://www.w3.org/2000/svg">
<path d="M127.135 65.906C135.251 62.3065 144.337 61.5233 152.949 63.6808L201.022 75.7247C228.062 82.4991 239.945 114.251 223.997 137.114L202.317 168.193C193.826 180.365 179.268 186.803 164.55 184.895L68.8915 172.494C28.9764 167.319 21.0773 112.946 57.8699 96.6271L127.135 65.906Z" fill="#D9D9D9"/>
<path d="M63.1986 66.5166L56.1411 71.9738C56.1411 71.9738 56.8688 68 58.3092 66.5166C60.4798 64.2779 63.1986 66.5166 63.1986 66.5166Z" fill="#EBEDF0"/>
<path d="M210.65 92.8896C202.56 90.7274 189.32 90.7274 181.231 92.8896L33.7598 128.449C12.1261 132.465 77.0546 154.331 101.641 149.192C106.252 148.23 111.901 146.993 122.966 144.155C144.961 138.512 204.205 123.076 217.752 118.626C236.283 112.537 245.172 109.913 247.769 108.163C250.363 106.413 251.345 103.767 243.253 101.605L210.65 92.8896Z" fill="#576485"/>
<path d="M192.435 93.0698C189.828 102.703 193.487 112.045 200.609 113.936C207.729 115.827 215.614 109.548 218.221 99.9141C220.827 90.2807 217.169 80.9385 210.049 79.0478C202.927 77.1572 195.042 83.4363 192.435 93.0698Z" fill="#001446"/>
<path d="M200.607 113.945L211.116 116.734L220.554 81.848L210.044 79.0591L200.607 113.945Z" fill="#001446"/>
<path d="M81.8842 122.459C79.2775 132.092 82.9358 141.435 90.0582 143.325C97.178 145.216 105.063 138.937 107.67 129.303C110.276 119.67 106.618 110.328 99.4981 108.437C92.3758 106.546 84.4909 112.825 81.8842 122.459Z" fill="#001446"/>
<path d="M90.0593 143.328L100.569 146.117L110.006 111.231L99.4969 108.443L90.0593 143.328Z" fill="#001446"/>
<path d="M230.12 98.7319L211.622 92.9439L131.486 117.132L119.39 132.263L93.1434 128.037L95.7301 105.971L217.882 72.6181L236.355 84.7642L230.12 98.7319Z" fill="#001446"/>
<path d="M240.888 64.6408L238.342 51.4803C238.342 51.4803 236.575 50.7546 233.445 49.7352C215.646 43.582 153.516 23.7918 117.87 34.0077C86.1083 43.1105 54.7131 73.5239 54.7131 73.5239C54.7131 73.5239 36.1248 83.0291 26.924 90.3473C17.0679 98.1889 14.521 117.416 19.4279 124.5C26.2861 134.395 68.2276 140.472 72.6536 141C79.9329 141.869 84.6205 141.869 89.1087 141L89.0639 138.09C88.7748 133.6 88.9667 129.316 89.9386 124.475C92.1814 113.324 101.609 105.853 109.392 107.116C116.806 108.321 121.847 116.387 119.387 132.263L130.592 127.057C149.075 120.924 169.114 115.503 191.134 110.992L199.333 110.029C199.333 105.075 199.682 100.714 201.05 95.2541C203.809 84.241 213.114 77.4756 220.68 79.4847C227.813 81.3778 231.336 89.2885 230.115 98.7343C232.577 96.4932 234.865 94.8049 238.805 90.2338C240.231 88.5825 242.66 79.4847 242.653 70.9669C242.655 68.3135 240.888 64.6408 240.888 64.6408Z" fill="#EBEDF0"/>
<mask id="mask0_1_2" style="mask-type:luminance" maskUnits="userSpaceOnUse" x="17" y="31" width="226" height="111">
<path d="M240.888 64.6408L238.342 51.4803C238.342 51.4803 236.575 50.7546 233.445 49.7352C215.646 43.582 153.516 23.7918 117.87 34.0077C86.1083 43.1105 54.7131 73.5239 54.7131 73.5239C54.7131 73.5239 36.1248 83.0291 26.924 90.3473C17.0679 98.1889 14.521 117.416 19.4279 124.5C26.2861 134.395 68.2276 140.472 72.6536 141C79.9329 141.869 84.6205 141.869 89.1087 141L89.0639 138.09C88.7748 133.6 88.9667 129.316 89.9386 124.475C92.1814 113.324 101.609 105.853 109.392 107.116C116.806 108.321 121.847 116.387 119.387 132.263L130.592 127.057C149.075 120.924 169.114 115.503 191.134 110.992L199.333 110.029C199.333 105.075 199.682 100.714 201.05 95.2541C203.809 84.241 213.114 77.4756 220.68 79.4847C227.813 81.3778 231.336 89.2885 230.115 98.7343C232.577 96.4932 234.865 94.8049 238.805 90.2338C240.231 88.5825 242.66 79.4847 242.653 70.9669C242.655 68.3135 240.888 64.6408 240.888 64.6408Z" fill="white"/>
</mask>
<g mask="url(#mask0_1_2)">
<path d="M164.803 47.8124C191.613 38.8379 209.745 43.614 223.98 47.0645L224.62 46.8054C200.228 39.0206 148.968 25.0924 117.87 34.0052C109.88 36.2957 101.913 39.9363 94.4617 44.1002C94.058 44.3569 93.6543 44.616 93.2505 44.8801C86.4547 48.8021 80.3167 52.8377 74.6721 56.9646C69.9048 60.4793 65.7754 63.8139 62.5258 66.561C59.8991 68.7947 57.3771 71.0482 54.9299 73.314C54.7879 73.4498 54.7131 73.5214 54.7131 73.5214C59.7945 81.8615 78.5299 88.4689 114.119 89.2834C114.122 89.2859 133.48 58.2999 164.803 47.8124Z" fill="#001446"/>
</g>
<mask id="mask1_1_2" style="mask-type:luminance" maskUnits="userSpaceOnUse" x="17" y="31" width="226" height="111">
<path d="M240.888 64.6408L238.342 51.4803C238.342 51.4803 236.575 50.7546 233.445 49.7352C215.646 43.582 153.516 23.7918 117.87 34.0077C86.1083 43.1105 54.7131 73.5239 54.7131 73.5239C54.7131 73.5239 36.1248 83.0291 26.924 90.3473C17.0679 98.1889 14.521 117.416 19.4279 124.5C26.2861 134.395 68.2276 140.472 72.6536 141C79.9329 141.869 84.6205 141.869 89.1087 141L89.0639 138.09C88.7748 133.6 88.9667 129.316 89.9386 124.475C92.1814 113.324 101.609 105.853 109.392 107.116C116.806 108.321 121.847 116.387 119.387 132.263L130.592 127.057C149.075 120.924 169.114 115.503 191.134 110.992L199.333 110.029C199.333 105.075 199.682 100.714 201.05 95.2541C203.809 84.241 213.114 77.4756 220.68 79.4847C227.813 81.3778 231.336 89.2885 230.115 98.7343C232.577 96.4932 234.865 94.8049 238.805 90.2338C240.231 88.5825 242.66 79.4847 242.653 70.9669C242.655 68.3135 240.888 64.6408 240.888 64.6408Z" fill="white"/>
</mask>
<g mask="url(#mask1_1_2)">
<path d="M171.863 45.707C169.949 46.25 168.421 46.6647 166.007 47.4274C150.636 41.8813 134.178 37.5545 116.721 34.3483L123.003 32.776C139.142 35.3553 155.341 39.8499 171.863 45.707Z" fill="#263762"/>
</g>
<mask id="mask2_1_2" style="mask-type:luminance" maskUnits="userSpaceOnUse" x="17" y="31" width="226" height="111">
<path d="M240.888 64.6408L238.342 51.4803C238.342 51.4803 236.575 50.7546 233.445 49.7352C215.646 43.582 153.516 23.7918 117.87 34.0077C86.1083 43.1105 54.7131 73.5239 54.7131 73.5239C54.7131 73.5239 36.1248 83.0291 26.924 90.3473C17.0679 98.1889 14.521 117.416 19.4279 124.5C26.2861 134.395 68.2276 140.472 72.6536 141C79.9329 141.869 84.6205 141.869 89.1087 141L89.0639 138.09C88.7748 133.6 88.9667 129.316 89.9386 124.475C92.1814 113.324 101.609 105.853 109.392 107.116C116.806 108.321 121.847 116.387 119.387 132.263L130.592 127.057C149.075 120.924 169.114 115.503 191.134 110.992L199.333 110.029C199.333 105.075 199.682 100.714 201.05 95.2541C203.809 84.241 213.114 77.4756 220.68 79.4847C227.813 81.3778 231.336 89.2885 230.115 98.7343C232.577 96.4932 234.865 94.8049 238.805 90.2338C240.231 88.5825 242.66 79.4847 242.653 70.9669C242.655 68.3135 240.888 64.6408 240.888 64.6408Z" fill="white"/>
</mask>
<g mask="url(#mask2_1_2)">
<path d="M101.305 40.5114L96.1837 43.1549C105.763 48.5455 124.529 52.8278 146.75 56.5746C148.039 55.7132 149.576 54.8197 151.356 53.7954C130.819 49.8561 113.227 45.5441 101.305 40.5114Z" fill="#263762"/>
</g>
<mask id="mask3_1_2" style="mask-type:luminance" maskUnits="userSpaceOnUse" x="17" y="31" width="226" height="111">
<path d="M240.888 64.6408L238.342 51.4803C238.342 51.4803 236.575 50.7546 233.445 49.7352C215.646 43.582 153.516 23.7918 117.87 34.0077C86.1083 43.1105 54.7131 73.5239 54.7131 73.5239C54.7131 73.5239 36.1248 83.0291 26.924 90.3473C17.0679 98.1889 14.521 117.416 19.4279 124.5C26.2861 134.395 68.2276 140.472 72.6536 141C79.9329 141.869 84.6205 141.869 89.1087 141L89.0639 138.09C88.7748 133.6 88.9667 129.316 89.9386 124.475C92.1814 113.324 101.609 105.853 109.392 107.116C116.806 108.321 121.847 116.387 119.387 132.263L130.592 127.057C149.075 120.924 169.114 115.503 191.134 110.992L199.333 110.029C199.333 105.075 199.682 100.714 201.05 95.2541C203.809 84.241 213.114 77.4756 220.68 79.4847C227.813 81.3778 231.336 89.2885 230.115 98.7343C232.577 96.4932 234.865 94.8049 238.805 90.2338C240.231 88.5825 242.66 79.4847 242.653 70.9669C242.655 68.3135 240.888 64.6408 240.888 64.6408Z" fill="white"/>
</mask>
<g mask="url(#mask3_1_2)">
<path d="M57.569 73.7288C64.178 81.3852 83.9576 85.5664 112.509 87.4348C112.509 87.4348 115.622 79.6501 93.253 74.5853C69.3989 69.1873 57.569 73.7288 57.569 73.7288Z" fill="#263762"/>
</g>
<mask id="mask4_1_2" style="mask-type:luminance" maskUnits="userSpaceOnUse" x="17" y="31" width="226" height="111">
<path d="M240.888 64.6408L238.342 51.4803C238.342 51.4803 236.575 50.7546 233.445 49.7352C215.646 43.582 153.516 23.7918 117.87 34.0077C86.1083 43.1105 54.7131 73.5239 54.7131 73.5239C54.7131 73.5239 36.1248 83.0291 26.924 90.3473C17.0679 98.1889 14.521 117.416 19.4279 124.5C26.2861 134.395 68.2276 140.472 72.6536 141C79.9329 141.869 84.6205 141.869 89.1087 141L89.0639 138.09C88.7748 133.6 88.9667 129.316 89.9386 124.475C92.1814 113.324 101.609 105.853 109.392 107.116C116.806 108.321 121.847 116.387 119.387 132.263L130.592 127.057C149.075 120.924 169.114 115.503 191.134 110.992L199.333 110.029C199.333 105.075 199.682 100.714 201.05 95.2541C203.809 84.241 213.114 77.4756 220.68 79.4847C227.813 81.3778 231.336 89.2885 230.115 98.7343C232.577 96.4932 234.865 94.8049 238.805 90.2338C240.231 88.5825 242.66 79.4847 242.653 70.9669C242.655 68.3135 240.888 64.6408 240.888 64.6408Z" fill="white"/>
</mask>
<g mask="url(#mask4_1_2)">
<path d="M102.419 53.1438L114.872 56.4488L119.602 52.1713L107.146 48.8664L102.419 53.1438Z" fill="#263762"/>
</g>
<mask id="mask5_1_2" style="mask-type:luminance" maskUnits="userSpaceOnUse" x="17" y="31" width="226" height="111">
<path d="M240.888 64.6408L238.342 51.4803C238.342 51.4803 236.575 50.7546 233.445 49.7352C215.646 43.582 153.516 23.7918 117.87 34.0077C86.1083 43.1105 54.7131 73.5239 54.7131 73.5239C54.7131 73.5239 36.1248 83.0291 26.924 90.3473C17.0679 98.1889 14.521 117.416 19.4279 124.5C26.2861 134.395 68.2276 140.472 72.6536 141C79.9329 141.869 84.6205 141.869 89.1087 141L89.0639 138.09C88.7748 133.6 88.9667 129.316 89.9386 124.475C92.1814 113.324 101.609 105.853 109.392 107.116C116.806 108.321 121.847 116.387 119.387 132.263L130.592 127.057C149.075 120.924 169.114 115.503 191.134 110.992L199.333 110.029C199.333 105.075 199.682 100.714 201.05 95.2541C203.809 84.241 213.114 77.4756 220.68 79.4847C227.813 81.3778 231.336 89.2885 230.115 98.7343C232.577 96.4932 234.865 94.8049 238.805 90.2338C240.231 88.5825 242.66 79.4847 242.653 70.9669C242.655 68.3135 240.888 64.6408 240.888 64.6408Z" fill="white"/>
</mask>
<g mask="url(#mask5_1_2)">
<path opacity="0.2" d="M17.8927 115.874C17.028 90.0042 48.1963 83.2684 68.5591 82.8661C82.3353 68.3036 116.721 26.3611 165.61 31.1297L190.691 27.8174L162.702 24.7124L105.006 32.776L8.20605 100.284L17.8927 115.874Z" fill="white"/>
</g>
<mask id="mask6_1_2" style="mask-type:luminance" maskUnits="userSpaceOnUse" x="17" y="31" width="226" height="111">
<path d="M240.888 64.6408L238.342 51.4803C238.342 51.4803 236.575 50.7546 233.445 49.7352C215.646 43.582 153.516 23.7918 117.87 34.0077C86.1083 43.1105 54.7131 73.5239 54.7131 73.5239C54.7131 73.5239 36.1248 83.0291 26.924 90.3473C17.0679 98.1889 14.521 117.416 19.4279 124.5C26.2861 134.395 68.2276 140.472 72.6536 141C79.9329 141.869 84.6205 141.869 89.1087 141L89.0639 138.09C88.7748 133.6 88.9667 129.316 89.9386 124.475C92.1814 113.324 101.609 105.853 109.392 107.116C116.806 108.321 121.847 116.387 119.387 132.263L130.592 127.057C149.075 120.924 169.114 115.503 191.134 110.992L199.333 110.029C199.333 105.075 199.682 100.714 201.05 95.2541C203.809 84.241 213.114 77.4756 220.68 79.4847C227.813 81.3778 231.336 89.2885 230.115 98.7343C232.577 96.4932 234.865 94.8049 238.805 90.2338C240.231 88.5825 242.66 79.4847 242.653 70.9669C242.655 68.3135 240.888 64.6408 240.888 64.6408Z" fill="white"/>
</mask>
<g mask="url(#mask6_1_2)">
<path d="M238.344 51.4803C238.344 51.4803 219.29 62.6613 162.797 81.4247C145.519 87.1634 113.11 94.5853 97.5693 102.108C82.0288 109.632 69.4986 126.504 61.686 131.498C53.8733 136.491 26.5378 127.854 21.7081 123.594C15.6474 118.248 14.3291 108.778 14.3291 108.778L13.9677 130.271L78.794 151.959L253.962 105.779L238.344 51.4803Z" fill="#C5C9D2"/>
</g>
<path d="M119.39 90.9965C150.94 81.5926 182.591 72.5836 211.031 60.9212C213.593 59.8698 217.817 58.5443 218.657 56.5722C219.287 55.0938 220.052 52.4133 220.683 50.0463C220.683 50.0463 196.111 40.5091 169.196 49.3848C133.256 61.2421 119.39 90.9965 119.39 90.9965Z" fill="#001446"/>
<path d="M202.665 95.7848C200.058 105.418 203.717 114.76 210.839 116.651C217.959 118.542 225.844 112.263 228.451 102.629C231.057 92.9957 227.399 83.6535 220.277 81.7628C213.157 79.8722 205.272 86.1513 202.665 95.7848Z" fill="#263762"/>
<path d="M225.172 101.76C227.117 94.5665 224.386 87.592 219.071 86.1816C213.756 84.7712 207.87 89.4589 205.924 96.6519C203.979 103.845 206.71 110.819 212.025 112.23C217.34 113.64 223.226 108.953 225.172 101.76Z" fill="#E5E7EC"/>
<path d="M221.341 98.6207L223.775 102.427C224.443 103.471 223.506 105.295 222.347 105.203L218.126 104.873C217.622 104.833 217.082 105.191 216.76 105.779L214.044 110.703C213.299 112.053 211.781 111.853 211.734 110.399L211.559 105.095C211.539 104.463 211.205 103.992 210.714 103.9L206.6 103.138C205.471 102.928 205.471 100.98 206.6 100.173L210.714 97.2262C211.205 96.8757 211.539 96.2266 211.559 95.5823L211.734 90.1868C211.781 88.7084 213.299 87.7038 214.044 88.659L216.76 92.1416C217.084 92.5563 217.622 92.6279 218.126 92.3218L222.347 89.7499C223.504 89.044 224.443 90.3719 223.775 91.7689L221.341 96.8683C221.049 97.473 221.049 98.1666 221.341 98.6207Z" fill="#263762"/>
<path d="M213.453 98.648C213.027 100.22 213.625 101.748 214.789 102.054C215.953 102.363 217.239 101.338 217.665 99.7636C218.091 98.1913 217.493 96.666 216.329 96.3574C215.165 96.0489 213.879 97.0732 213.453 98.648Z" fill="#E5E7EC"/>
<path d="M92.1167 125.174C89.51 134.807 93.1683 144.15 100.291 146.04C107.411 147.931 115.295 141.652 117.902 132.018C120.509 122.385 116.851 113.043 109.728 111.152C102.606 109.261 94.7209 115.54 92.1167 125.174Z" fill="#263762"/>
<path d="M95.3837 126.043C93.4374 133.235 96.1687 140.21 101.484 141.62C106.8 143.031 112.686 138.344 114.633 131.152C116.579 123.96 113.848 116.984 108.532 115.575C103.216 114.161 97.3276 118.848 95.3837 126.043Z" fill="#E5E7EC"/>
<path d="M110.79 128.01L113.225 131.816C113.892 132.86 112.955 134.684 111.797 134.593L107.575 134.262C107.072 134.222 106.531 134.58 106.207 135.168L103.49 140.092C102.745 141.442 101.228 141.242 101.18 139.788L101.006 134.484C100.986 133.852 100.652 133.381 100.161 133.289L96.0467 132.527C94.9178 132.317 94.9178 130.369 96.0467 129.562L100.161 126.615C100.652 126.265 100.986 125.616 101.006 124.971L101.18 119.576C101.228 118.097 102.745 117.093 103.49 118.046L106.207 121.528C106.531 121.943 107.069 122.015 107.575 121.708L111.797 119.137C112.955 118.431 113.892 119.759 113.225 121.156L110.79 126.255C110.498 126.862 110.498 127.556 110.79 128.01Z" fill="#263762"/>
<path d="M102.902 128.037C102.476 129.609 103.074 131.137 104.238 131.443C105.402 131.752 106.688 130.727 107.114 129.153C107.54 127.58 106.942 126.053 105.778 125.744C104.614 125.438 103.329 126.465 102.902 128.037Z" fill="#E5E7EC"/>
<path d="M166.881 51.5814L169.513 74.3631L175.195 72.5218L172.04 49.908L166.881 51.5814Z" fill="#263762"/>
<path d="M206.254 61.4346L210.119 59.8771L205.987 47.6175L202.371 47.1757L206.254 61.4346Z" fill="#263762"/>
<path d="M169.545 49.3354C170.609 57.5298 172.396 74.879 172.396 74.879C172.396 74.879 174.948 78.0506 174.442 82.8118C173.62 90.5275 172.568 104.357 173.283 109.634" stroke="#001446" stroke-width="0.354597" stroke-miterlimit="10"/>
<path d="M204.1 46.4377L208.539 61.9357C210.757 65.3344 210.582 69.9302 209.08 73.2154L195.632 99.2773C194.207 102.397 191.732 104.715 189.073 105.418L126.114 122.21C123.786 109.123 123.098 94.7087 119.487 90.9051" stroke="#001446" stroke-width="0.354597" stroke-miterlimit="10"/>
<path d="M114 89.249C114 89.249 113.733 90.7916 111.383 92.0603C108.774 93.4721 86.031 102.898 80.3366 105.537C73.1868 108.849 63.6497 110.947 57.3323 110.219C47.4163 109.076 32.9423 105.08 29.4834 103.367C25.7054 101.496 21.743 97.2386 23.5846 95.3159" stroke="#001446" stroke-width="0.354597" stroke-miterlimit="10"/>
<path d="M240.888 64.6408C240.888 64.6408 231.189 69.1675 230.103 69.6389C229.014 70.1104 228.401 71.342 227.94 73.0204C227.479 74.6988 225.806 82.3922 225.806 82.3922" stroke="#001446" stroke-width="0.354597" stroke-miterlimit="10"/>
<path d="M85.4105 103.298C85.4105 103.298 90.4868 105.159 91.8151 106.137C93.4474 107.339 95.947 109.743 96.1837 112.465" stroke="#001446" stroke-width="0.354597" stroke-miterlimit="10"/>
<path d="M55.2639 126.667C56.5648 126.529 53.4796 121.958 53.041 121.138C49.2954 114.173 41.3581 113.161 33.386 111.029C26.2362 109.116 24.9603 111.813 24.0208 113.171C23.6594 113.694 22.2863 116.362 23.1386 117.014C25.1223 118.532 29.6877 120.499 36.2967 122.387C43.449 124.431 53.7537 126.828 55.2639 126.667Z" fill="#CBCFD7"/>
<path d="M42.4795 103.789C41.9936 104.801 40.922 105.302 40.0897 104.91C39.2548 104.517 38.9757 103.377 39.4616 102.365C39.9476 101.353 41.0192 100.852 41.8515 101.244C42.6864 101.637 42.968 102.777 42.4795 103.789Z" fill="#667290"/>
<path d="M239.311 56.5747C239.311 56.5747 236.58 58.5518 235.286 59.739C233.544 61.3359 233.2 64.6433 232.121 68.748L240.961 64.7988L239.311 56.5747Z" fill="#667290"/>
<path d="M85.4105 103.254C78.9635 102.758 66.1841 102.219 57.2226 104.658C55.6327 105.09 53.3325 108.385 52.7095 109.671C52.7095 109.671 62.9569 111.895 68.8058 110.564C76.5412 108.805 85.4105 103.254 85.4105 103.254Z" fill="#667290"/>
<path d="M163.26 84.5841L171.786 81.4865L171.467 83.5104L162.794 86.724L163.26 84.5841Z" fill="#667290"/>
<path d="M199.769 71.0952L208.197 67.7409L207.941 69.7723L199.37 73.2475L199.769 71.0952Z" fill="#667290"/>
<path opacity="0.2" d="M121.877 89.286C164.531 60.8891 185.495 55.0493 219.287 50.7768C219.287 50.7768 196.206 41.6691 169.747 50.5399C135.082 62.1627 121.877 89.286 121.877 89.286Z" fill="white"/>
<path d="M124.304 91.4309C124.304 91.4309 123.539 91.6284 125.463 92.9192C127.561 94.3286 135.053 96.7326 136.979 95.97C139.68 94.9037 140.55 89.0614 139.167 88.6023C135.701 87.4521 134.477 86.3488 133.316 86.4155C132.157 86.4846 124.304 91.4309 124.304 91.4309Z" fill="#BEC3CD"/>
<path d="M121.251 90.5003C121.251 90.5003 127.103 84.3816 129.844 84.3297C131.977 84.2902 136.957 84.4877 138.11 87.2842C139.264 90.0807 135.783 91.5888 131.357 92.4872C126.931 93.3856 123.908 92.7019 122.834 92.1293C121.762 91.5567 121.251 90.5003 121.251 90.5003Z" fill="#EBEDF0"/>
<mask id="mask7_1_2" style="mask-type:luminance" maskUnits="userSpaceOnUse" x="121" y="84" width="18" height="9">
<path d="M121.251 90.5003C121.251 90.5003 127.103 84.3816 129.844 84.3297C131.977 84.2902 136.957 84.4877 138.11 87.2842C139.264 90.0807 135.783 91.5888 131.357 92.4872C126.931 93.3856 123.908 92.7019 122.834 92.1293C121.762 91.5567 121.251 90.5003 121.251 90.5003Z" fill="white"/>
</mask>
<g mask="url(#mask7_1_2)">
<path d="M135.544 84.5617C135.544 84.5617 135.925 87.5976 130.971 88.7725C128.396 89.3846 120.24 90.6237 120.24 90.6237L122.223 94.1902L138.616 94.4988L140.74 87.5113L137.742 83.5004L135.544 84.5617Z" fill="#C5C9D2"/>
</g>
<path d="M29.6977 123.338L44.9392 127.383V121.03L29.6977 116.987V123.338Z" fill="#001446"/>
<path d="M28.7407 123.55L43.9798 127.595V121.242L28.7407 117.197V123.55Z" fill="white"/>
<path d="M29.3139 103.458C29.3139 103.458 29.6154 98.7738 29.1046 98.0333C27.8635 96.234 27.6243 95.417 27.8112 93.5461C28.0654 90.994 28.3943 89.2859 28.3943 89.2859C28.3943 89.2859 21.4066 94.5877 21.7579 98.2283C21.9947 100.699 29.3139 103.458 29.3139 103.458Z" fill="#667290"/>
</svg>
