<svg width="266" height="240" viewBox="0 0 266 240" fill="none" xmlns="http://www.w3.org/2000/svg">
<path d="M125.135 69.0418C133.251 65.4423 142.337 64.659 150.949 66.8166L199.022 78.8604C226.062 85.6348 237.945 117.387 221.997 140.25L200.317 171.328C191.826 183.501 177.268 189.939 162.55 188.031L66.8915 175.629C26.9764 170.455 19.0773 116.081 55.8699 99.7629L125.135 69.0418Z" fill="#D9D9D9"/>
<path d="M204.418 95.5568C196.41 93.3957 183.308 93.3957 175.302 95.5568L29.3485 131.092C7.93776 135.105 72.1982 156.956 96.5312 151.823C101.096 150.859 106.687 149.627 117.637 146.789C139.405 141.152 198.039 125.725 211.449 121.279C229.791 115.195 238.588 112.571 241.155 110.822C243.724 109.073 244.694 106.43 236.686 104.269L204.418 95.5568Z" fill="#576485"/>
<path d="M61.7284 70.5588L51.891 79.4519C51.891 79.4519 50.5738 72.275 52.2748 70.5042C54.8416 67.8328 61.7284 70.5588 61.7284 70.5588Z" fill="#EBEDF0"/>
<path d="M101.739 76.9288L106.27 78.1522C106.833 78.3048 107.223 78.8173 107.223 79.4039V90.7875C107.223 91.4461 106.761 92.0109 106.12 92.1374L105.222 92.314C104.986 92.3598 104.742 92.3533 104.508 92.2922L100.485 91.228C99.6824 91.0165 99.1219 90.2838 99.1219 89.4485V79.2448C99.1219 78.5011 99.4491 77.7945 100.014 77.3148C100.494 76.9113 101.137 76.7674 101.739 76.9288Z" fill="#263762"/>
<mask id="mask0_1_334" style="mask-type:luminance" maskUnits="userSpaceOnUse" x="99" y="76" width="9" height="17">
<path d="M101.739 76.9288L106.27 78.1522C106.833 78.3048 107.223 78.8173 107.223 79.4039V90.7875C107.223 91.4461 106.761 92.0109 106.12 92.1374L105.222 92.314C104.986 92.3598 104.742 92.3533 104.508 92.2922L100.485 91.228C99.6824 91.0165 99.1219 90.2838 99.1219 89.4485V79.2448C99.1219 78.5011 99.4491 77.7945 100.014 77.3148C100.494 76.9113 101.137 76.7674 101.739 76.9288Z" fill="white"/>
</mask>
<g mask="url(#mask0_1_334)">
<path d="M106.837 92.9312H105.344V79.8292L106.837 79.1073V92.9312Z" fill="#001446"/>
</g>
<path d="M188.965 96.8566C186.605 105.73 189.918 114.333 196.366 116.073C202.813 117.814 209.953 112.032 212.314 103.159C214.674 94.2876 211.361 85.6823 204.913 83.9421C198.464 82.2019 191.325 87.9852 188.965 96.8566Z" fill="#001446"/>
<path d="M196.366 116.073L205.881 118.64L214.43 86.5111L204.913 83.9421L196.366 116.073Z" fill="#001446"/>
<path d="M77.7548 126.899C75.3953 135.772 78.7078 144.375 85.1563 146.116C91.6027 147.856 98.7425 142.075 101.104 133.201C103.464 124.33 100.151 115.727 93.7027 113.984C87.2564 112.244 80.1166 118.025 77.7548 126.899Z" fill="#001446"/>
<path d="M85.1564 146.113L94.6732 148.682L103.22 116.553L93.7028 113.984L85.1564 146.113Z" fill="#001446"/>
<path d="M222.845 101.408L211.568 100.075L122.779 122.568L111.53 136.88L87.119 132.883L89.5244 112.011L228.629 74.2988L229.259 89.719L222.845 101.408Z" fill="#001446"/>
<path d="M234.333 76.8633C234.333 76.8633 233.54 63.613 230.674 55.7405C226.18 43.3952 219.188 35.8694 217.411 35.2806C210.653 32.9035 172.973 22.5079 169.421 23.0182C158.19 24.6319 116.976 34.875 99.1241 40.2156C90.654 42.7497 91.0335 41.7269 81.6192 48.0053C72.2048 54.2859 50.9402 79.7245 50.9402 79.7245C50.9402 79.7245 37.4915 86.3802 30.0245 94.9702C24.5988 101.214 25.3948 106.114 24.9237 106.873C19.9712 114.837 22.1476 125.172 25.301 130.013C29.6538 136.697 48.2775 142.157 71.6618 144.545C76.3853 145.027 79.3533 144.035 83.3289 142.929C83.0606 138.684 82.4326 134.091 83.3376 129.513C85.4246 118.965 92.8893 110.837 102.236 112.155C109.158 113.129 114.76 121.866 112.473 136.882L194.916 113.363C194.916 113.363 193.734 103.279 195.006 98.1148C197.57 87.6973 207.03 80.2239 214.07 82.1233C220.704 83.9137 224.518 92.471 223.384 101.406C225.674 99.2859 229.019 99.9729 232.683 95.6506C234.006 94.087 235.993 89.4158 235.987 81.3579C235.982 78.8522 234.333 76.8633 234.333 76.8633Z" fill="#EBEDF0"/>
<mask id="mask1_1_334" style="mask-type:luminance" maskUnits="userSpaceOnUse" x="22" y="23" width="214" height="122">
<path d="M234.333 76.8633C234.333 76.8633 233.54 63.613 230.674 55.7405C226.18 43.3952 219.188 35.8694 217.411 35.2806C210.653 32.9035 172.973 22.5079 169.421 23.0182C158.19 24.6319 116.976 34.875 99.1241 40.2156C90.654 42.7497 91.0335 41.7269 81.6192 48.0053C72.2048 54.2859 50.9402 79.7245 50.9402 79.7245C50.9402 79.7245 37.4915 86.3802 30.0245 94.9702C24.5988 101.214 25.3948 106.114 24.9237 106.873C19.9712 114.837 22.1476 125.172 25.301 130.013C29.6538 136.697 48.2775 142.157 71.6618 144.545C76.3853 145.027 79.3533 144.035 83.3289 142.929C83.0606 138.684 82.4326 134.091 83.3376 129.513C85.4246 118.965 92.8893 110.837 102.236 112.155C109.158 113.129 114.76 121.866 112.473 136.882L194.916 113.363C194.916 113.363 193.734 103.279 195.006 98.1148C197.57 87.6973 207.03 80.2239 214.07 82.1233C220.704 83.9137 224.518 92.471 223.384 101.406C225.674 99.2859 229.019 99.9729 232.683 95.6506C234.006 94.087 235.993 89.4158 235.987 81.3579C235.982 78.8522 234.333 76.8633 234.333 76.8633Z" fill="white"/>
</mask>
<g mask="url(#mask1_1_334)">
<path d="M138.973 50.0574L104.5 40.8197L147.079 30.5309L181.555 39.7686L138.973 50.0574Z" fill="#263762"/>
</g>
<mask id="mask2_1_334" style="mask-type:luminance" maskUnits="userSpaceOnUse" x="22" y="23" width="214" height="122">
<path d="M234.333 76.8633C234.333 76.8633 233.54 63.613 230.674 55.7405C226.18 43.3952 219.188 35.8694 217.411 35.2806C210.653 32.9035 172.973 22.5079 169.421 23.0182C158.19 24.6319 116.976 34.875 99.1241 40.2156C90.654 42.7497 91.0335 41.7269 81.6192 48.0053C72.2048 54.2859 50.9402 79.7245 50.9402 79.7245C50.9402 79.7245 37.4915 86.3802 30.0245 94.9702C24.5988 101.214 25.3948 106.114 24.9237 106.873C19.9712 114.837 22.1476 125.172 25.301 130.013C29.6538 136.697 48.2775 142.157 71.6618 144.545C76.3853 145.027 79.3533 144.035 83.3289 142.929C83.0606 138.684 82.4326 134.091 83.3376 129.513C85.4246 118.965 92.8893 110.837 102.236 112.155C109.158 113.129 114.76 121.866 112.473 136.882L194.916 113.363C194.916 113.363 193.734 103.279 195.006 98.1148C197.57 87.6973 207.03 80.2239 214.07 82.1233C220.704 83.9137 224.518 92.471 223.384 101.406C225.674 99.2859 229.019 99.9729 232.683 95.6506C234.006 94.087 235.993 89.4158 235.987 81.3579C235.982 78.8522 234.333 76.8633 234.333 76.8633Z" fill="white"/>
</mask>
<g mask="url(#mask2_1_334)">
<path d="M128.693 60.5992C109.406 57.5941 88.9487 51.7061 81.6191 48.0075C73.9777 53.8018 56.4946 70.1618 50.9402 79.7267C57.7376 85.3661 85.6732 92.2311 101.379 93.3412C110.994 80.4507 120.463 68.1316 128.693 60.5992Z" fill="#001446"/>
</g>
<mask id="mask3_1_334" style="mask-type:luminance" maskUnits="userSpaceOnUse" x="22" y="23" width="214" height="122">
<path d="M234.333 76.8633C234.333 76.8633 233.54 63.613 230.674 55.7405C226.18 43.3952 219.188 35.8694 217.411 35.2806C210.653 32.9035 172.973 22.5079 169.421 23.0182C158.19 24.6319 116.976 34.875 99.1241 40.2156C90.654 42.7497 91.0335 41.7269 81.6192 48.0053C72.2048 54.2859 50.9402 79.7245 50.9402 79.7245C50.9402 79.7245 37.4915 86.3802 30.0245 94.9702C24.5988 101.214 25.3948 106.114 24.9237 106.873C19.9712 114.837 22.1476 125.172 25.301 130.013C29.6538 136.697 48.2775 142.157 71.6618 144.545C76.3853 145.027 79.3533 144.035 83.3289 142.929C83.0606 138.684 82.4326 134.091 83.3376 129.513C85.4246 118.965 92.8893 110.837 102.236 112.155C109.158 113.129 114.76 121.866 112.473 136.882L194.916 113.363C194.916 113.363 193.734 103.279 195.006 98.1148C197.57 87.6973 207.03 80.2239 214.07 82.1233C220.704 83.9137 224.518 92.471 223.384 101.406C225.674 99.2859 229.019 99.9729 232.683 95.6506C234.006 94.087 235.993 89.4158 235.987 81.3579C235.982 78.8522 234.333 76.8633 234.333 76.8633Z" fill="white"/>
</mask>
<g mask="url(#mask3_1_334)">
<path d="M52.7808 79.1837C58.6601 82.4679 79.9007 89.3896 101.643 91.9891C101.643 91.9891 105.134 86.8774 102.838 85.2026C95.1006 79.5566 83.1849 82.2564 74.2809 80.2064C53.8711 75.5047 52.7808 79.1837 52.7808 79.1837Z" fill="#263762"/>
</g>
<mask id="mask4_1_334" style="mask-type:luminance" maskUnits="userSpaceOnUse" x="22" y="23" width="214" height="122">
<path d="M234.333 76.8633C234.333 76.8633 233.54 63.613 230.674 55.7405C226.18 43.3952 219.188 35.8694 217.411 35.2806C210.653 32.9035 172.973 22.5079 169.421 23.0182C158.19 24.6319 116.976 34.875 99.1241 40.2156C90.654 42.7497 91.0335 41.7269 81.6192 48.0053C72.2048 54.2859 50.9402 79.7245 50.9402 79.7245C50.9402 79.7245 37.4915 86.3802 30.0245 94.9702C24.5988 101.214 25.3948 106.114 24.9237 106.873C19.9712 114.837 22.1476 125.172 25.301 130.013C29.6538 136.697 48.2775 142.157 71.6618 144.545C76.3853 145.027 79.3533 144.035 83.3289 142.929C83.0606 138.684 82.4326 134.091 83.3376 129.513C85.4246 118.965 92.8893 110.837 102.236 112.155C109.158 113.129 114.76 121.866 112.473 136.882L194.916 113.363C194.916 113.363 193.734 103.279 195.006 98.1148C197.57 87.6973 207.03 80.2239 214.07 82.1233C220.704 83.9137 224.518 92.471 223.384 101.406C225.674 99.2859 229.019 99.9729 232.683 95.6506C234.006 94.087 235.993 89.4158 235.987 81.3579C235.982 78.8522 234.333 76.8633 234.333 76.8633Z" fill="white"/>
</mask>
<g mask="url(#mask4_1_334)">
<path d="M87.5269 59.4892L98.1821 62.3657L102.088 58.606L91.4326 55.7296L87.5269 59.4892Z" fill="#263762"/>
</g>
<mask id="mask5_1_334" style="mask-type:luminance" maskUnits="userSpaceOnUse" x="22" y="23" width="214" height="122">
<path d="M234.333 76.8633C234.333 76.8633 233.54 63.613 230.674 55.7405C226.18 43.3952 219.188 35.8694 217.411 35.2806C210.653 32.9035 172.973 22.5079 169.421 23.0182C158.19 24.6319 116.976 34.875 99.1241 40.2156C90.654 42.7497 91.0335 41.7269 81.6192 48.0053C72.2048 54.2859 50.9402 79.7245 50.9402 79.7245C50.9402 79.7245 37.4915 86.3802 30.0245 94.9702C24.5988 101.214 25.3948 106.114 24.9237 106.873C19.9712 114.837 22.1476 125.172 25.301 130.013C29.6538 136.697 48.2775 142.157 71.6618 144.545C76.3853 145.027 79.3533 144.035 83.3289 142.929C83.0606 138.684 82.4326 134.091 83.3376 129.513C85.4246 118.965 92.8893 110.837 102.236 112.155C109.158 113.129 114.76 121.866 112.473 136.882L194.916 113.363C194.916 113.363 193.734 103.279 195.006 98.1148C197.57 87.6973 207.03 80.2239 214.07 82.1233C220.704 83.9137 224.518 92.471 223.384 101.406C225.674 99.2859 229.019 99.9729 232.683 95.6506C234.006 94.087 235.993 89.4158 235.987 81.3579C235.982 78.8522 234.333 76.8633 234.333 76.8633Z" fill="white"/>
</mask>
<g mask="url(#mask5_1_334)">
<path d="M241.711 57.4895C214.063 68.8403 128 95.2864 106.336 100.485C95.842 103.004 86.9053 106.373 81.34 115.225C76.5816 122.795 76.6819 131.871 65.4946 133.232C55.0858 134.499 22.6928 127.363 18.0936 117.912C16.6019 114.85 21.9317 139.179 21.9317 139.179L68.0592 149.864L242.79 100.078L241.711 57.4895Z" fill="#C5C9D2"/>
</g>
<mask id="mask6_1_334" style="mask-type:luminance" maskUnits="userSpaceOnUse" x="22" y="23" width="214" height="122">
<path d="M234.333 76.8633C234.333 76.8633 233.54 63.613 230.674 55.7405C226.18 43.3952 219.188 35.8694 217.411 35.2806C210.653 32.9035 172.973 22.5079 169.421 23.0182C158.19 24.6319 116.976 34.875 99.1241 40.2156C90.654 42.7497 91.0335 41.7269 81.6192 48.0053C72.2048 54.2859 50.9402 79.7245 50.9402 79.7245C50.9402 79.7245 37.4915 86.3802 30.0245 94.9702C24.5988 101.214 25.3948 106.114 24.9237 106.873C19.9712 114.837 22.1476 125.172 25.301 130.013C29.6538 136.697 48.2775 142.157 71.6618 144.545C76.3853 145.027 79.3533 144.035 83.3289 142.929C83.0606 138.684 82.4326 134.091 83.3376 129.513C85.4246 118.965 92.8893 110.837 102.236 112.155C109.158 113.129 114.76 121.866 112.473 136.882L194.916 113.363C194.916 113.363 193.734 103.279 195.006 98.1148C197.57 87.6973 207.03 80.2239 214.07 82.1233C220.704 83.9137 224.518 92.471 223.384 101.406C225.674 99.2859 229.019 99.9729 232.683 95.6506C234.006 94.087 235.993 89.4158 235.987 81.3579C235.982 78.8522 234.333 76.8633 234.333 76.8633Z" fill="white"/>
</mask>
<g mask="url(#mask6_1_334)">
<path opacity="0.2" d="M208.629 25.5021C202.874 29.7764 102.118 40.0456 90.4796 51.9744C81.5297 61.1466 74.0781 74.301 69.0645 87.2089C54.7369 91.2041 39.2644 88.2622 24.6446 100.01L79.9029 32.0793L168.228 16.9186L208.629 25.5021Z" fill="white"/>
</g>
<path d="M223.683 66.9518L193.845 75.882L193.575 73.2716L223.414 64.3414L223.683 66.9518Z" fill="#263762"/>
<path d="M232.07 60.0911C233.165 64.5638 233.836 70.4235 234.333 76.8633L230.611 78.2328L230.29 65.2486C230.231 63.5541 232.07 60.0911 232.07 60.0911Z" fill="#667290"/>
<path d="M170.647 84.038L163.099 86.1948V89.455L170.647 87.2983V84.038Z" fill="#667290"/>
<path d="M156.962 87.85L149.415 90.0068V93.2649L156.962 91.1081V87.85Z" fill="#667290"/>
<path d="M110.363 135.794C112.722 126.986 109.409 118.446 102.962 116.718C96.5146 114.991 89.3751 120.73 87.0152 129.538C84.6554 138.346 87.9688 146.886 94.416 148.613C100.863 150.341 108.003 144.601 110.363 135.794Z" fill="#263762"/>
<path d="M89.6094 130.233C87.7732 137.087 90.3509 143.732 95.3688 145.078C100.387 146.421 105.941 141.955 107.777 135.101C109.614 128.246 107.036 121.602 102.018 120.256C97.0022 118.913 91.4456 123.381 89.6094 130.233Z" fill="#E5E7EC"/>
<path d="M90.9833 130.602C89.4241 136.42 91.6135 142.062 95.8704 143.202C100.129 144.343 104.844 140.553 106.403 134.734C107.963 128.916 105.773 123.274 101.516 122.134C97.2573 120.993 92.5425 124.783 90.9833 130.602Z" fill="#001446"/>
<path d="M103.93 132.133L106.135 135.613C106.739 136.568 105.891 138.234 104.842 138.152L101.019 137.851C100.563 137.813 100.075 138.141 99.7805 138.677L97.3206 143.178C96.6467 144.412 95.2729 144.229 95.2292 142.901L95.0722 138.053C95.0526 137.475 94.7517 137.044 94.3068 136.961L90.582 136.263C89.5614 136.071 89.5614 134.292 90.582 133.552L94.3068 130.857C94.7517 130.536 95.0526 129.943 95.0722 129.354L95.2292 124.421C95.2729 123.069 96.6467 122.151 97.3206 123.024L99.7805 126.207C100.073 126.587 100.563 126.652 101.019 126.371L104.842 124.02C105.891 123.375 106.739 124.589 106.135 125.867L103.93 130.53C103.667 131.084 103.667 131.716 103.93 132.133Z" fill="#E5E7EC"/>
<path d="M96.7885 132.157C96.4025 133.596 96.9433 134.989 97.9966 135.271C99.0499 135.552 100.214 134.616 100.6 133.177C100.986 131.738 100.446 130.344 99.3923 130.061C98.339 129.782 97.1723 130.719 96.7885 132.157Z" fill="#263762"/>
<path d="M221.569 105.756C223.929 96.9481 220.616 88.4078 214.169 86.6804C207.722 84.953 200.582 90.6925 198.222 99.5001C195.862 108.308 199.176 116.848 205.623 118.575C212.07 120.303 219.21 114.563 221.569 105.756Z" fill="#263762"/>
<path d="M200.82 100.193C198.983 107.047 201.561 113.692 206.579 115.038C211.597 116.381 217.151 111.915 218.987 105.061C220.824 98.2065 218.246 91.5617 213.228 90.2162C208.212 88.8729 202.656 93.3391 200.82 100.193Z" fill="#E5E7EC"/>
<path d="M202.193 100.562C200.634 106.38 202.824 112.022 207.081 113.162C211.34 114.303 216.054 110.513 217.614 104.694C219.173 98.876 216.983 93.2344 212.727 92.0938C208.467 90.9511 203.753 94.7434 202.193 100.562Z" fill="#001446"/>
<path d="M215.138 102.09L217.343 105.571C217.947 106.526 217.099 108.192 216.05 108.109L212.227 107.808C211.771 107.771 211.283 108.098 210.988 108.635L208.529 113.136C207.855 114.37 206.481 114.187 206.437 112.859L206.28 108.011C206.261 107.433 205.96 107.002 205.515 106.919L201.79 106.221C200.769 106.029 200.769 104.249 201.79 103.51L205.515 100.815C205.96 100.494 206.261 99.901 206.28 99.3121L206.437 94.3793C206.481 93.0272 207.855 92.1091 208.529 92.9814L210.988 96.1653C211.281 96.5448 211.771 96.6102 212.227 96.3289L216.05 93.978C217.099 93.3325 217.947 94.5472 217.343 95.8251L215.138 100.488C214.877 101.044 214.877 101.676 215.138 102.09Z" fill="#E5E7EC"/>
<path d="M207.996 102.117C207.61 103.556 208.151 104.949 209.205 105.231C210.258 105.512 211.422 104.577 211.808 103.137C212.194 101.698 211.654 100.304 210.6 100.021C209.549 99.7396 208.382 100.677 207.996 102.117Z" fill="#263762"/>
<path d="M32.6982 128.984L46.9734 132.809V126.801L32.6982 122.976V128.984Z" fill="#001446"/>
<path d="M31.7997 129.182L46.0771 133.009V126.999L31.7997 123.174V129.182Z" fill="white"/>
<path d="M106.255 96.6537L214.796 63.4386C219.044 62.1497 221.873 60.6559 219.943 56.6586C216.983 50.5263 212.766 40.1022 205.399 41.1359C196.135 42.4356 145.81 53.0145 135.663 59.5066C122.676 67.811 106.255 96.6537 106.255 96.6537Z" fill="#001446"/>
<path d="M54.135 118.601C60.2346 119.194 68.0592 117.602 71.6596 116.414C75.26 115.225 83.2067 109.11 75.7594 109.426C68.3121 109.743 60.8801 111.234 58.6884 111.969C56.4968 112.7 54.135 118.601 54.135 118.601Z" fill="#667290"/>
<path d="M30.609 112.24C27.8961 111.298 24.6468 108.417 25.0895 105.673C25.7066 101.321 26.5702 100.016 27.7391 98.0582C28.7553 96.3506 30.3495 103.517 30.7616 105.065C31.1716 106.613 30.609 112.24 30.609 112.24Z" fill="#667290"/>
<path d="M155.569 80.2392L160.835 78.5033L157.787 54.4146L153.264 55.7034L155.569 80.2392Z" fill="#263762"/>
<path d="M189.909 69.9111L195.176 68.173L188.976 46.6707L184.721 47.6891L189.909 69.9111Z" fill="#263762"/>
<path d="M128.693 60.5993C128.693 60.5993 135.388 55.1953 145.478 51.6734C152.232 49.316 199.509 37.2935 216.637 35.0582" stroke="#001446" stroke-width="0.3103" stroke-miterlimit="10"/>
<path d="M186.856 46.7383L193.104 70.2927C195.789 80.7189 191.667 108.857 188.204 110.212C184.743 111.564 116.158 130.525 116.158 130.525L114.267 94.2222L113.365 87.1282" stroke="#001446" stroke-width="0.3103" stroke-miterlimit="10"/>
<path d="M159.435 118.468C161.662 103.541 161.221 90.1027 158.19 80.889L155.569 54.4429" stroke="#001446" stroke-width="0.3103" stroke-miterlimit="10"/>
<path d="M75.7595 109.424C75.7595 109.424 94.0539 99.0111 96.6642 97.6569C99.1241 96.3789 100.208 94.9048 101.379 93.339" stroke="#001446" stroke-width="0.3103" stroke-miterlimit="10"/>
<path d="M219.581 85.5777C219.581 85.5777 221.356 81.6065 223.683 80.7386C226.012 79.8728 234.336 76.9004 234.336 76.9004" stroke="#001446" stroke-width="0.3103" stroke-miterlimit="10"/>
<path opacity="0.2" d="M112.621 91.891C139.619 71.2261 179.276 62.7386 214.43 52.7071C214.43 52.7071 210.851 42.6058 204.226 43.6417C196.183 44.8956 147.589 55.5704 138.439 61.4214C126.733 68.908 112.621 91.891 112.621 91.891Z" fill="white"/>
<path d="M115.781 92.5561C115.781 92.5561 114.98 92.7633 116.993 94.1285C119.187 95.6157 127.014 98.1498 129.027 97.3473C131.849 96.222 132.76 90.057 131.314 89.5729C127.69 88.3604 126.414 87.1958 125.199 87.2656C123.983 87.3354 115.781 92.5561 115.781 92.5561Z" fill="#BEC3CD"/>
<path d="M112.59 91.5726C112.59 91.5726 118.705 85.1176 121.569 85.0609C123.799 85.0172 129.003 85.2266 130.207 88.1772C131.412 91.1277 127.773 92.7175 123.147 93.6661C118.522 94.6148 115.362 93.8929 114.241 93.2889C113.122 92.687 112.59 91.5726 112.59 91.5726Z" fill="#EBEDF0"/>
<mask id="mask7_1_334" style="mask-type:luminance" maskUnits="userSpaceOnUse" x="112" y="85" width="19" height="10">
<path d="M112.59 91.5726C112.59 91.5726 118.705 85.1176 121.569 85.0609C123.799 85.0172 129.003 85.2266 130.207 88.1772C131.412 91.1277 127.773 92.7175 123.147 93.6661C118.522 94.6148 115.362 93.8929 114.241 93.2889C113.122 92.687 112.59 91.5726 112.59 91.5726Z" fill="white"/>
</mask>
<g mask="url(#mask7_1_334)">
<path d="M127.524 85.3073C127.524 85.3073 127.923 88.5109 122.746 89.7517C120.055 90.3972 111.535 91.7057 111.535 91.7057L113.609 95.4675L130.739 95.7924L132.959 88.4193L129.825 84.1886L127.524 85.3073Z" fill="#C5C9D2"/>
</g>
<path d="M54.135 118.601C44.1035 116.623 37.8076 114.83 30.6068 112.24L30.042 113.245C29.6472 115.574 31.0516 117.829 33.3131 118.503C37.9145 119.875 43.2901 121.299 49.1062 122.542C51.2978 123.01 53.5135 121.726 54.388 119.661L54.135 118.601Z" fill="#CBCFD7"/>
<path d="M42.8539 112.486C42.5028 113.487 41.5564 114.065 40.7408 113.779C39.9252 113.494 39.5479 112.449 39.899 111.45C40.2501 110.449 41.1966 109.871 42.0122 110.157C42.8278 110.443 43.205 111.485 42.8539 112.486Z" fill="#667290"/>
</svg>
