<svg width="266" height="240" viewBox="0 0 266 240" fill="none" xmlns="http://www.w3.org/2000/svg">
<path d="M129.135 71.906C137.251 68.3065 146.337 67.5233 154.949 69.6808L203.022 81.7247C230.062 88.4991 241.945 120.251 225.997 143.114L204.317 174.193C195.826 186.365 181.268 192.803 166.55 190.895L70.8914 178.494C30.9763 173.319 23.0773 118.946 59.8699 102.627L129.135 71.906Z" fill="#D9D9D9"/>
<path d="M203.168 88.9258C195.382 86.806 182.643 86.806 174.86 88.9258L32.9512 123.799C12.1347 127.737 74.6136 149.182 98.2718 144.141C102.71 143.197 108.147 141.985 118.792 139.201C139.957 133.668 196.967 118.53 210.002 114.165C227.835 108.194 236.389 105.62 238.887 103.904C241.383 102.185 242.328 99.5933 234.542 97.4712L203.168 88.9258Z" fill="#576485"/>
<path d="M51.0639 56.517L55.3547 57.6853C55.8882 57.8313 56.259 58.3219 56.259 58.8833V69.7653C56.259 70.3951 55.8204 70.9336 55.2146 71.0545L54.3623 71.2234C54.1385 71.269 53.9079 71.2599 53.6863 71.2006L49.877 70.1829C49.1175 69.9798 48.5862 69.2815 48.5862 68.4829V58.7281C48.5862 58.0162 48.8959 57.3407 49.4317 56.8844C49.8838 56.501 50.492 56.3618 51.0639 56.517Z" fill="#263762"/>
<mask id="mask0_1_508" style="mask-type:luminance" maskUnits="userSpaceOnUse" x="48" y="56" width="9" height="16">
<path d="M51.0639 56.517L55.3547 57.6853C55.8882 57.8313 56.259 58.3219 56.259 58.8833V69.7653C56.259 70.3951 55.8204 70.9336 55.2146 71.0545L54.3623 71.2234C54.1385 71.269 53.9079 71.2599 53.6863 71.2006L49.877 70.1829C49.1175 69.9798 48.5862 69.2815 48.5862 68.4829V58.7281C48.5862 58.0162 48.8959 57.3407 49.4317 56.8844C49.8838 56.501 50.492 56.3618 51.0639 56.517Z" fill="white"/>
</mask>
<g mask="url(#mask0_1_508)">
<path opacity="0.1" d="M55.8928 71.8166H54.4776V59.2894L55.8928 58.6003V71.8166Z" fill="#3B4250"/>
</g>
<path d="M106.894 71.2827L111.185 72.451C111.718 72.597 112.089 73.0876 112.089 73.6489V84.531C112.089 85.1608 111.651 85.7015 111.045 85.8202L110.192 85.989C109.969 86.0347 109.738 86.0256 109.517 85.9662L105.707 84.9485C104.948 84.7455 104.416 84.0472 104.416 83.2486V73.4938C104.416 72.7818 104.726 72.1064 105.262 71.6501C105.714 71.2644 106.324 71.1252 106.894 71.2827Z" fill="#263762"/>
<mask id="mask1_1_508" style="mask-type:luminance" maskUnits="userSpaceOnUse" x="104" y="71" width="9" height="16">
<path d="M106.894 71.2827L111.185 72.451C111.718 72.597 112.089 73.0876 112.089 73.6489V84.531C112.089 85.1608 111.651 85.7015 111.045 85.8202L110.192 85.989C109.969 86.0347 109.738 86.0256 109.517 85.9662L105.707 84.9485C104.948 84.7455 104.416 84.0472 104.416 83.2486V73.4938C104.416 72.7818 104.726 72.1064 105.262 71.6501C105.714 71.2644 106.324 71.1252 106.894 71.2827Z" fill="white"/>
</mask>
<g mask="url(#mask1_1_508)">
<path d="M111.725 86.5801H110.31V74.0551L111.725 73.3637V86.5801Z" fill="#001446"/>
</g>
<path d="M190.359 90.5641C188.248 98.5779 191.211 106.35 196.983 107.922C202.752 109.494 209.143 104.271 211.255 96.2573C213.366 88.2435 210.402 80.4716 204.631 78.8994C198.862 77.325 192.471 82.5481 190.359 90.5641Z" fill="#001446"/>
<path d="M196.983 107.922L205.499 110.243L213.147 81.2177L204.631 78.8971L196.983 107.922Z" fill="#001446"/>
<path d="M85.0309 119.281C82.9194 127.295 85.8832 135.067 91.6548 136.639C97.4241 138.211 103.815 132.988 105.927 124.972C108.038 116.958 105.074 109.186 99.3027 107.614C93.5334 106.044 87.1424 111.267 85.0309 119.281Z" fill="#001446"/>
<path d="M91.6548 136.641L100.171 138.959L107.819 109.937L99.3027 107.616L91.6548 136.641Z" fill="#001446"/>
<path d="M221.595 94.6829L210.916 93.4096L126.822 114.911L116.168 128.593L93.0473 124.771L95.3261 104.819L227.075 68.7681L227.672 83.5065L221.595 94.6829Z" fill="#001446"/>
<path d="M234.617 68.7681C234.617 68.7681 231.248 14.4173 228.493 13.4977C222.093 11.2273 181.664 -0.839006 178.382 0.0463423C175.099 0.931691 97.7473 22.0272 80.8396 27.1339C72.8163 29.5572 66.7305 38.988 66.7305 38.988L47.0919 70.9107C47.0919 70.9107 38.8765 78.4111 32.3453 84.4853C29.3295 87.2874 29.2278 88.604 28.787 91.9903C28.6875 92.757 26.8699 96.109 26.741 96.8848C25.2015 106.037 26.1985 114.685 28.4637 120.76C30.4848 126.177 65.8308 134.806 76.3317 135.409C80.8215 135.667 85.6888 134.923 89.4551 133.864C89.2019 129.805 89.3692 125.928 90.226 121.551C92.2018 111.468 100.505 104.711 107.362 105.855C113.893 106.943 118.333 114.238 116.167 128.593L194.48 104.899C194.48 104.899 194.788 96.474 195.993 91.5385C198.423 81.5806 206.618 75.463 213.285 77.2793C219.567 78.9907 222.671 86.1442 221.597 94.6851C223.765 92.6588 229.582 90.863 233.052 86.7329C234.307 85.2383 236.188 80.7728 236.181 73.0694C236.179 70.6689 234.617 68.7681 234.617 68.7681Z" fill="#EBEDF0"/>
<mask id="mask2_1_508" style="mask-type:luminance" maskUnits="userSpaceOnUse" x="26" y="0" width="211" height="136">
<path d="M234.617 68.7681C234.617 68.7681 231.248 14.4173 228.493 13.4977C222.093 11.2273 181.664 -0.839006 178.382 0.0463423C175.099 0.931691 97.7473 22.0272 80.8396 27.1339C72.8163 29.5572 66.7305 38.988 66.7305 38.988L47.0919 70.9107C47.0919 70.9107 38.8765 78.4111 32.3453 84.4853C29.3295 87.2874 29.2278 88.604 28.787 91.9903C28.6875 92.757 26.8699 96.109 26.741 96.8848C25.2015 106.037 26.1985 114.685 28.4637 120.76C30.4848 126.177 65.8308 134.806 76.3317 135.409C80.8215 135.667 85.6888 134.923 89.4551 133.864C89.2019 129.805 89.3692 125.928 90.226 121.551C92.2018 111.468 100.505 104.711 107.362 105.855C113.893 106.943 118.333 114.238 116.167 128.593L194.48 104.899C194.48 104.899 194.788 96.474 195.993 91.5385C198.423 81.5806 206.618 75.463 213.285 77.2793C219.567 78.9907 222.671 86.1442 221.597 94.6851C223.765 92.6588 229.582 90.863 233.052 86.7329C234.307 85.2383 236.188 80.7728 236.181 73.0694C236.179 70.6689 234.617 68.7681 234.617 68.7681Z" fill="white"/>
</mask>
<g mask="url(#mask2_1_508)">
<path d="M111.314 51.0269C93.0473 48.1541 73.6709 42.5248 66.7283 38.9903C66.7283 38.9903 52.6803 61.4663 47.0896 70.913C53.5258 76.305 79.985 82.8675 94.8604 83.9263L111.314 51.0269Z" fill="#001446"/>
</g>
<mask id="mask3_1_508" style="mask-type:luminance" maskUnits="userSpaceOnUse" x="26" y="0" width="211" height="136">
<path d="M234.617 68.7681C234.617 68.7681 231.248 14.4173 228.493 13.4977C222.093 11.2273 181.664 -0.839006 178.382 0.0463423C175.099 0.931691 97.7473 22.0272 80.8396 27.1339C72.8163 29.5572 66.7305 38.988 66.7305 38.988L47.0919 70.9107C47.0919 70.9107 38.8765 78.4111 32.3453 84.4853C29.3295 87.2874 29.2278 88.604 28.787 91.9903C28.6875 92.757 26.8699 96.109 26.741 96.8848C25.2015 106.037 26.1985 114.685 28.4637 120.76C30.4848 126.177 65.8308 134.806 76.3317 135.409C80.8215 135.667 85.6888 134.923 89.4551 133.864C89.2019 129.805 89.3692 125.928 90.226 121.551C92.2018 111.468 100.505 104.711 107.362 105.855C113.893 106.943 118.333 114.238 116.167 128.593L194.48 104.899C194.48 104.899 194.788 96.474 195.993 91.5385C198.423 81.5806 206.618 75.463 213.285 77.2793C219.567 78.9907 222.671 86.1442 221.597 94.6851C223.765 92.6588 229.582 90.863 233.052 86.7329C234.307 85.2383 236.188 80.7728 236.181 73.0694C236.179 70.6689 234.617 68.7681 234.617 68.7681Z" fill="white"/>
</mask>
<g mask="url(#mask3_1_508)">
<path d="M48.5862 69.8794C54.1566 73.0192 74.27 79.6365 94.865 82.1214C94.865 82.1214 98.1724 77.236 95.9953 75.6341C88.6661 70.2353 77.3807 72.8161 68.9483 70.856C49.6193 66.3631 48.5862 69.8794 48.5862 69.8794Z" fill="#263762"/>
</g>
<mask id="mask4_1_508" style="mask-type:luminance" maskUnits="userSpaceOnUse" x="26" y="0" width="211" height="136">
<path d="M234.617 68.7681C234.617 68.7681 231.248 14.4173 228.493 13.4977C222.093 11.2273 181.664 -0.839006 178.382 0.0463423C175.099 0.931691 97.7473 22.0272 80.8396 27.1339C72.8163 29.5572 66.7305 38.988 66.7305 38.988L47.0919 70.9107C47.0919 70.9107 38.8765 78.4111 32.3453 84.4853C29.3295 87.2874 29.2278 88.604 28.787 91.9903C28.6875 92.757 26.8699 96.109 26.741 96.8848C25.2015 106.037 26.1985 114.685 28.4637 120.76C30.4848 126.177 65.8308 134.806 76.3317 135.409C80.8215 135.667 85.6888 134.923 89.4551 133.864C89.2019 129.805 89.3692 125.928 90.226 121.551C92.2018 111.468 100.505 104.711 107.362 105.855C113.893 106.943 118.333 114.238 116.167 128.593L194.48 104.899C194.48 104.899 194.788 96.474 195.993 91.5385C198.423 81.5806 206.618 75.463 213.285 77.2793C219.567 78.9907 222.671 86.1442 221.597 94.6851C223.765 92.6588 229.582 90.863 233.052 86.7329C234.307 85.2383 236.188 80.7728 236.181 73.0694C236.179 70.6689 234.617 68.7681 234.617 68.7681Z" fill="white"/>
</mask>
<g mask="url(#mask4_1_508)">
<path d="M74.9957 50.8261L85.0897 53.5757L87.4069 49.6053L77.3129 46.8557L74.9957 50.8261Z" fill="#263762"/>
</g>
<mask id="mask5_1_508" style="mask-type:luminance" maskUnits="userSpaceOnUse" x="26" y="0" width="211" height="136">
<path d="M234.617 68.7681C234.617 68.7681 231.248 14.4173 228.493 13.4977C222.093 11.2273 181.664 -0.839006 178.382 0.0463423C175.099 0.931691 97.7473 22.0272 80.8396 27.1339C72.8163 29.5572 66.7305 38.988 66.7305 38.988L47.0919 70.9107C47.0919 70.9107 38.8765 78.4111 32.3453 84.4853C29.3295 87.2874 29.2278 88.604 28.787 91.9903C28.6875 92.757 26.8699 96.109 26.741 96.8848C25.2015 106.037 26.1985 114.685 28.4637 120.76C30.4848 126.177 65.8308 134.806 76.3317 135.409C80.8215 135.667 85.6888 134.923 89.4551 133.864C89.2019 129.805 89.3692 125.928 90.226 121.551C92.2018 111.468 100.505 104.711 107.362 105.855C113.893 106.943 118.333 114.238 116.167 128.593L194.48 104.899C194.48 104.899 194.788 96.474 195.993 91.5385C198.423 81.5806 206.618 75.463 213.285 77.2793C219.567 78.9907 222.671 86.1442 221.597 94.6851C223.765 92.6588 229.582 90.863 233.052 86.7329C234.307 85.2383 236.188 80.7728 236.181 73.0694C236.179 70.6689 234.617 68.7681 234.617 68.7681Z" fill="white"/>
</mask>
<g mask="url(#mask5_1_508)">
<path d="M233.43 12.2701C233.43 12.2701 131.94 40.3571 127.491 42.1164C123.042 43.8756 118.2 46.5134 114.011 52.5603C109.824 58.6071 100.618 77.4482 97.3472 83.1413C94.5122 88.0723 86.8078 94.2219 82.8674 96.741C78.0114 99.8443 78.5811 116.641 67.9083 116.641C58.8045 116.641 29.7116 108.12 21.8059 103.842C18.962 102.302 31.3076 130.79 31.3076 130.79L74.9956 141.006L240.488 93.4118L233.43 12.2701Z" fill="#C5C9D2"/>
</g>
<mask id="mask6_1_508" style="mask-type:luminance" maskUnits="userSpaceOnUse" x="26" y="0" width="211" height="136">
<path d="M234.617 68.7681C234.617 68.7681 231.248 14.4173 228.493 13.4977C222.093 11.2273 181.664 -0.839006 178.382 0.0463423C175.099 0.931691 97.7473 22.0272 80.8396 27.1339C72.8163 29.5572 66.7305 38.988 66.7305 38.988L47.0919 70.9107C47.0919 70.9107 38.8765 78.4111 32.3453 84.4853C29.3295 87.2874 29.2278 88.604 28.787 91.9903C28.6875 92.757 26.8699 96.109 26.741 96.8848C25.2015 106.037 26.1985 114.685 28.4637 120.76C30.4848 126.177 65.8308 134.806 76.3317 135.409C80.8215 135.667 85.6888 134.923 89.4551 133.864C89.2019 129.805 89.3692 125.928 90.226 121.551C92.2018 111.468 100.505 104.711 107.362 105.855C113.893 106.943 118.333 114.238 116.167 128.593L194.48 104.899C194.48 104.899 194.788 96.474 195.993 91.5385C198.423 81.5806 206.618 75.463 213.285 77.2793C219.567 78.9907 222.671 86.1442 221.597 94.6851C223.765 92.6588 229.582 90.863 233.052 86.7329C234.307 85.2383 236.188 80.7728 236.181 73.0694C236.179 70.6689 234.617 68.7681 234.617 68.7681Z" fill="white"/>
</mask>
<g mask="url(#mask6_1_508)">
<path opacity="0.2" d="M85.3519 24.5212C76.3318 31.2822 72.6626 34.9149 59.7021 77.058C46.1311 80.8777 41.5102 81.8316 26.0018 87.9081L68.0779 27.3461L85.3519 24.5212Z" fill="white"/>
</g>
<path d="M232.718 42.6777L234.04 60.1907L230.887 61.1514L230.525 50.242C230.475 48.6242 232.718 42.6777 232.718 42.6777Z" fill="#667290"/>
<path d="M154.884 73.2679L147.736 75.3283V78.4453L154.884 76.3826V73.2679Z" fill="#667290"/>
<path d="M142.114 77.0899L134.965 79.1504V82.2674L142.114 80.2046V77.0899Z" fill="#667290"/>
<path d="M146.748 70.9655L221.772 49.3292C224.288 48.5648 225.226 46.2465 225.334 44.8158L226.566 23.2274L146.748 45.1854V70.9655Z" fill="#001446"/>
<path opacity="0.2" d="M148.33 69.1355L225.287 24.8315L148.33 46.7257V69.1355Z" fill="white"/>
<path d="M114.212 127.318C116.324 119.362 113.358 111.648 107.588 110.087C101.817 108.526 95.4273 113.711 93.3153 121.667C91.2034 129.623 94.1693 137.337 99.9399 138.898C105.71 140.458 112.101 135.274 114.212 127.318Z" fill="#263762"/>
<path d="M95.6404 122.295C93.9969 128.486 96.305 134.489 100.795 135.703C105.285 136.917 110.258 132.883 111.902 126.692C113.545 120.502 111.237 114.498 106.747 113.284C102.255 112.07 97.2839 116.105 95.6404 122.295Z" fill="#E5E7EC"/>
<path d="M96.8679 122.628C95.4731 127.883 97.4309 132.979 101.242 134.01C105.054 135.042 109.275 131.617 110.67 126.362C112.064 121.106 110.107 116.011 106.295 114.98C102.484 113.948 98.2628 117.373 96.8679 122.628Z" fill="#001446"/>
<path d="M108.454 124.009L110.428 127.153C110.968 128.016 110.208 129.522 109.27 129.446L105.85 129.173C105.443 129.141 105.004 129.435 104.742 129.921L102.54 133.987C101.936 135.103 100.707 134.937 100.668 133.736L100.528 129.355C100.512 128.833 100.241 128.442 99.8431 128.367L96.5085 127.737C95.5952 127.564 95.5952 125.955 96.5085 125.289L99.8431 122.854C100.241 122.564 100.51 122.028 100.528 121.497L100.668 117.04C100.707 115.819 101.936 114.989 102.54 115.778L104.742 118.653C105.004 118.996 105.443 119.055 105.85 118.802L109.27 116.677C110.208 116.096 110.968 117.191 110.428 118.345L108.454 122.558C108.219 123.064 108.219 123.635 108.454 124.009Z" fill="#E5E7EC"/>
<path d="M102.063 124.034C101.717 125.332 102.203 126.594 103.144 126.847C104.086 127.103 105.129 126.257 105.474 124.956C105.82 123.658 105.334 122.396 104.394 122.142C103.451 121.887 102.409 122.733 102.063 124.034Z" fill="#263762"/>
<path d="M219.539 98.6035C221.651 90.6476 218.685 82.933 212.914 81.3724C207.144 79.8117 200.754 84.9962 198.642 92.9521C196.53 100.908 199.496 108.623 205.266 110.183C211.037 111.744 217.427 106.559 219.539 98.6035Z" fill="#263762"/>
<path d="M200.969 93.5761C199.325 99.7667 201.633 105.77 206.123 106.984C210.613 108.198 215.586 104.164 217.23 97.9732C218.873 91.7826 216.565 85.7791 212.075 84.5652C207.583 83.3512 202.612 87.3855 200.969 93.5761Z" fill="#E5E7EC"/>
<path d="M202.198 93.9093C200.804 99.1643 202.761 104.26 206.573 105.291C210.384 106.322 214.605 102.897 216 97.6424C217.395 92.3873 215.437 87.292 211.626 86.2606C207.814 85.2292 203.593 88.6542 202.198 93.9093Z" fill="#001446"/>
<path d="M213.784 95.2921L215.758 98.4364C216.298 99.299 215.539 100.805 214.601 100.73L211.18 100.456C210.773 100.424 210.335 100.718 210.072 101.204L207.87 105.271C207.267 106.386 206.037 106.22 205.999 105.02L205.858 100.638C205.843 100.116 205.571 99.7257 205.173 99.6504L201.839 99.0206C200.926 98.8472 200.926 97.2385 201.839 96.5722L205.173 94.1375C205.571 93.8477 205.84 93.3115 205.858 92.7798L205.999 88.3234C206.037 87.1026 207.267 86.272 207.87 87.0615L210.072 89.9366C210.335 90.2789 210.773 90.3382 211.18 90.0849L214.601 87.9606C215.539 87.3787 216.298 88.474 215.758 89.6286L213.784 93.8408C213.549 94.3451 213.549 94.9156 213.784 95.2921Z" fill="#E5E7EC"/>
<path d="M207.391 95.3149C207.045 96.6133 207.531 97.8751 208.472 98.1284C209.415 98.384 210.457 97.5374 210.803 96.2368C211.149 94.9384 210.662 93.6766 209.722 93.4233C208.782 93.1677 207.737 94.0143 207.391 95.3149Z" fill="#263762"/>
<path d="M94.8604 84.0222C94.8604 84.0222 95.0119 86.5573 93.0473 88.5539C92.1544 89.4621 85.6707 95.3902 82.3881 96.9898C77.444 99.4017 72.423 99.4679 66.5271 98.74C60.0886 97.9436 27.7312 90.4524 30.652 86.4409" stroke="#001446" stroke-width="1.4229" stroke-miterlimit="10"/>
<path d="M143.545 46.0663V116.422L120.298 123.288C118.365 108.705 115.152 105.944 111.859 103.927C110.5 103.094 109.6 101.665 109.437 100.061L106.607 72.0928" stroke="#001446" stroke-width="1.4229" stroke-miterlimit="10"/>
<path d="M100.621 84.2685L143.547 71.8896V46.0662L119.513 52.6675C117.04 53.3544 114.972 55.0794 113.825 57.4115L100.621 84.2685Z" fill="#001446"/>
<path opacity="0.2" d="M104.012 81.8315L141.164 48.7679L120.363 54.4815C118.222 55.0771 116.432 56.5694 115.44 58.5866L104.012 81.8315Z" fill="white"/>
<path d="M106.894 71.2826L111.185 72.4509C111.718 72.597 112.089 73.0876 112.089 73.6489V84.5309C112.089 85.1607 111.651 85.7015 111.045 85.8202L110.192 85.989C109.969 86.0346 109.738 86.0255 109.517 85.9662L105.707 84.9485C104.948 84.7454 104.416 84.0472 104.416 83.2485V73.4937C104.416 72.7818 104.726 72.1064 105.262 71.65C105.714 71.2644 106.324 71.1252 106.894 71.2826Z" fill="#263762"/>
<mask id="mask7_1_508" style="mask-type:luminance" maskUnits="userSpaceOnUse" x="104" y="71" width="9" height="16">
<path d="M106.894 71.2826L111.185 72.4509C111.718 72.597 112.089 73.0876 112.089 73.6489V84.5309C112.089 85.1607 111.651 85.7015 111.045 85.8202L110.192 85.989C109.969 86.0346 109.738 86.0255 109.517 85.9662L105.707 84.9485C104.948 84.7454 104.416 84.0472 104.416 83.2485V73.4937C104.416 72.7818 104.726 72.1064 105.262 71.65C105.714 71.2644 106.324 71.1252 106.894 71.2826Z" fill="white"/>
</mask>
<g mask="url(#mask7_1_508)">
<path d="M111.725 86.58H110.31V74.055L111.725 73.3636V86.58Z" fill="#001446"/>
</g>
<path d="M65.0983 98.2744C54.5657 96.1797 45.1499 93.8408 37.5901 91.0981L37.9044 96.6863C44.4378 98.9749 53.0691 101.038 62.6025 103.007L65.0983 98.2744Z" fill="#CBCFD7"/>
<path d="M33.8419 83.0911C34.1923 85.519 31.6671 87.8031 37.5901 91.0958L37.9044 96.684C33.0755 95.0753 29.8563 93.2293 28.787 91.988C28.787 89.8248 29.6121 85.754 33.8419 83.0911Z" fill="#667290"/>
<path d="M62.6048 103.005L65.0983 98.2744C80.7062 99.1483 81.1086 92.1431 83.8327 94.571C85.682 96.2185 83.8847 98.3588 82.2457 100.241C79.2028 103.739 70.8586 104.746 62.6048 103.005Z" fill="#667290"/>
<path d="M39.1501 119.368L52.6736 123.025V117.282L39.1501 113.624V119.368Z" fill="#001446"/>
<path d="M38.3 119.559L51.8235 123.217V117.471L38.3 113.814V119.559Z" fill="white"/>
<path d="M52.348 92.2367C51.5839 92.9213 50.5146 92.9669 49.9607 92.3371C49.4068 91.7073 49.5764 90.6417 50.3405 89.9572C51.1046 89.2726 52.1739 89.227 52.7278 89.8568C53.2839 90.4865 53.1121 91.5522 52.348 92.2367Z" fill="#667290"/>
<path d="M120.632 20.439L118.166 19.7727L174.347 4.57806L176.813 5.24435L120.632 20.439Z" fill="#CBCFD7"/>
<path d="M127.677 22.3444L125.208 21.6781L181.389 6.48338L183.857 7.14967L127.677 22.3444Z" fill="#CBCFD7"/>
<path d="M134.719 24.2497L132.25 23.5811L188.431 8.38644L190.899 9.05502L134.719 24.2497Z" fill="#CBCFD7"/>
<path d="M141.761 26.1527L139.292 25.4864L195.473 10.2917L197.942 10.9603L141.761 26.1527Z" fill="#CBCFD7"/>
<path d="M148.803 28.0581L146.337 27.3918L202.517 12.1971L204.984 12.8634L148.803 28.0581Z" fill="#CBCFD7"/>
</svg>
